<svg width="167" height="28" viewBox="0 0 167 28" fill="none" xmlns="http://www.w3.org/2000/svg">
   <g clip-path="url(#clip0_173_265)">
      <path fill-rule="evenodd" clip-rule="evenodd"
         d="M44.3647 0L30.2085 27.6739H16.9118L22.8362 16.2047H22.5704C17.6828 22.5494 10.3905 26.7261 0 27.6739V16.3634C0 16.3634 6.64704 15.9708 10.5546 11.8625H0V0.000218595H11.8623V9.75677L12.1285 9.75567L16.9759 0.000218595H25.947V9.69491L26.2133 9.69447L31.2425 0H44.3647Z"
         fill="black" />
      <path d="M121.562 24.6192H125.383V2.69043H121.562V24.6192Z" fill="black" />
      <path fill-rule="evenodd" clip-rule="evenodd"
         d="M100.499 24.3953C101.33 24.7405 102.174 24.9131 103.032 24.9131C104.45 24.9131 105.719 24.5679 106.839 23.8775C107.958 23.1871 108.826 22.2355 109.442 21.0227C110.057 19.8005 110.365 18.4151 110.365 16.8664C110.365 15.3178 110.048 13.9324 109.414 12.7102C108.779 11.4881 107.898 10.5411 106.769 9.86945C105.64 9.1884 104.357 8.85255 102.92 8.86188C102.006 8.86188 101.129 9.03913 100.289 9.39365C99.4503 9.74817 98.7506 10.2519 98.1909 10.905C98.1476 10.9547 98.1056 11.0049 98.0649 11.0556V2.70447H94.2305V24.6192H98.0369L98.0292 22.5719C98.1277 22.6926 98.2329 22.8106 98.3448 22.9259C98.9512 23.551 99.6696 24.0408 100.499 24.3953ZM104.418 20.8548C103.793 21.2373 103.079 21.4285 102.277 21.4285C101.484 21.4285 100.756 21.2326 100.094 20.8408C99.4317 20.4396 98.9046 19.8938 98.5127 19.2035C98.1302 18.5131 97.939 17.7294 97.939 16.8525C97.9296 15.9755 98.1162 15.1918 98.4987 14.5014C98.8906 13.8017 99.4177 13.2606 100.08 12.8781C100.742 12.4863 101.474 12.295 102.277 12.3044C103.079 12.295 103.793 12.4816 104.418 12.8641C105.052 13.2373 105.537 13.7738 105.873 14.4735C106.218 15.1638 106.391 15.9568 106.391 16.8525C106.391 17.7481 106.218 18.5411 105.873 19.2314C105.537 19.9218 105.052 20.4629 104.418 20.8548Z"
         fill="black" />
      <path
         d="M49.9023 4.0199H54.2684L58.1741 18.2836L62.329 4.0199H65.9675L70.4737 17.9974L74.224 4.0199H78.2263L72.3208 24.6192H68.5564L63.9743 10.9643L59.7681 24.6192H55.9617L49.9023 4.0199Z"
         fill="black" />
      <path fill-rule="evenodd" clip-rule="evenodd"
         d="M84.6749 24.983C83.1542 24.9924 81.7828 24.6565 80.5607 23.9754C79.3479 23.2851 78.3916 22.3288 77.6919 21.1067C77.0015 19.8845 76.6562 18.4898 76.6562 16.9224C76.6562 15.4017 77.0109 14.0256 77.7199 12.7942C78.4289 11.5627 79.3899 10.6018 80.6027 9.91141C81.8155 9.22104 83.1682 8.87585 84.6609 8.87585C86.3403 8.87585 87.8096 9.24903 89.0691 9.99538C90.3379 10.7417 91.2848 11.8006 91.9099 13.172C92.5443 14.5341 92.7729 16.0968 92.5956 17.86H80.6086C80.6421 18.5625 80.8174 19.2016 81.1344 19.7772C81.489 20.4116 81.9834 20.9061 82.6178 21.2606C83.2522 21.6151 83.9613 21.7924 84.7449 21.7924C85.342 21.783 85.8971 21.6804 86.4102 21.4845C86.9233 21.2793 87.3572 21.004 87.7117 20.6588C88.0755 20.3137 88.3321 19.9218 88.4813 19.4833H92.4837C92.241 20.5562 91.756 21.5125 91.0283 22.3521C90.3006 23.1824 89.3863 23.8308 88.2854 24.2973C87.1846 24.7638 85.981 24.9924 84.6749 24.983ZM81.1484 14.0117C80.9248 14.4015 80.7699 14.8213 80.6838 15.2711H88.6297C88.572 14.7029 88.3966 14.1851 88.1035 13.7178C87.7677 13.1673 87.3105 12.7429 86.7321 12.4443C86.1537 12.1364 85.5006 11.9825 84.7729 11.9825C83.9985 11.9825 83.2942 12.1598 82.6598 12.5143C82.0254 12.8688 81.5216 13.3679 81.1484 14.0117Z"
         fill="black" />
      <path
         d="M113.178 9.19769C113.178 7.94755 113.463 6.83736 114.032 5.8671C114.601 4.88751 115.398 4.12717 116.425 3.58606C117.46 3.03563 118.668 2.75108 120.049 2.73242V6.13299C119.405 6.14232 118.855 6.27759 118.398 6.53882C117.95 6.79071 117.605 7.15922 117.362 7.64435C117.139 8.09097 117.018 8.60875 117.001 9.19769H119.965V12.4303H116.998V24.6192H113.178V12.4303H110.715V9.19769H113.178Z"
         fill="black" />
      <path fill-rule="evenodd" clip-rule="evenodd"
         d="M135.091 24.955C133.533 24.955 132.138 24.6145 130.906 23.9335C129.684 23.2431 128.723 22.2915 128.024 21.0787C127.333 19.8565 126.988 18.4711 126.988 16.9224C126.988 15.3644 127.333 13.9743 128.024 12.7522C128.723 11.5207 129.684 10.5644 130.906 9.88338C132.138 9.20234 133.533 8.86182 135.091 8.86182C136.658 8.86182 138.057 9.20234 139.289 9.88338C140.53 10.5644 141.495 11.516 142.186 12.7382C142.876 13.9603 143.226 15.3551 143.235 16.9224C143.226 18.4711 142.876 19.8565 142.186 21.0787C141.505 22.2915 140.544 23.2431 139.303 23.9335C138.062 24.6145 136.658 24.955 135.091 24.955ZM135.091 21.4425C135.912 21.4425 136.639 21.2559 137.274 20.8828C137.908 20.5002 138.398 19.9685 138.743 19.2874C139.088 18.597 139.261 17.8087 139.261 16.9224C139.261 16.0268 139.088 15.2338 138.743 14.5434C138.398 13.8531 137.908 13.3213 137.274 12.9481C136.639 12.5656 135.912 12.3743 135.091 12.3743C134.279 12.3743 133.556 12.5656 132.921 12.9481C132.296 13.3213 131.811 13.8531 131.466 14.5434C131.121 15.2338 130.953 16.0268 130.962 16.9224C130.962 17.8087 131.135 18.597 131.48 19.2874C131.835 19.9685 132.32 20.5002 132.935 20.8828C133.561 21.2559 134.279 21.4425 135.091 21.4425Z"
         fill="black" />
      <path
         d="M147.363 9.19763H143.109L147.713 24.6192H151.436L154.463 14.7695L157.733 24.6192H161.399L166.018 9.19763H162.169L159.55 18.7966L156.655 9.19763H152.933L150.052 19.008L147.363 9.19763Z"
         fill="black" />
   </g>
   <defs>
      <clipPath id="clip0_173_265">
         <rect width="167" height="28" fill="white" />
      </clipPath>
   </defs>
</svg>