<svg width="43" height="37" viewBox="0 0 43 37" fill="#3b82f6" xmlns="http://www.w3.org/2000/svg">
<path fill-rule="evenodd" clip-rule="evenodd" d="M37.7531 1.23945C38.2572 1.02743 38.809 0.954306 39.3509 1.02769C39.8929 1.10107 40.4053 1.31827 40.8348 1.65668C41.2643 1.9951 41.5951 2.44236 41.7929 2.95191C41.9907 3.46145 42.0482 4.01466 41.9594 4.55395L37.3329 32.5968C36.8841 35.3018 33.914 36.8531 31.4314 35.5057C29.3547 34.3784 26.2704 32.6417 23.4961 30.8295C22.1089 29.9224 17.8598 27.0176 18.382 24.9506C18.8308 23.1833 25.9705 16.542 30.0503 12.5936C31.6517 11.0423 30.9214 10.1474 29.0304 11.5743C24.3345 15.1172 16.7949 20.5048 14.3021 22.0214C12.1031 23.3586 10.9566 23.5869 9.58581 23.3586C7.08487 22.9427 4.76547 22.2986 2.87242 21.5138C0.314357 20.4538 0.438792 16.9395 2.87038 15.9162L37.7531 1.23945Z" stroke="#3b82f6"/>
</svg>
