<svg width="36" height="35" viewBox="0 0 36 35" fill="none" xmlns="http://www.w3.org/2000/svg">
<path d="M7.29297 3.84668C12.4228 -0.118908 19.1605 -0.346321 24.7891 2.04004C30.2426 4.35229 34.5777 9.08435 35.3721 15.126L35.4375 15.7148C35.5274 16.6951 35.5296 18.477 35.3809 20.1553C35.3066 20.9933 35.1963 21.7907 35.0449 22.4404C34.9405 22.8885 34.8233 23.2254 34.71 23.4551C34.7066 23.4537 34.7027 23.4526 34.6992 23.4512C34.4936 23.3664 34.2064 23.2452 33.8691 23.1123C33.1927 22.8458 32.2911 22.5224 31.3135 22.3047C29.4637 21.8927 27.1242 21.8138 25.6367 23.5166L25.4951 23.6875C24.1087 25.451 24.4406 27.8268 25.0049 29.6611C25.2933 30.5985 25.6571 31.4448 25.9424 32.0732C26.0671 32.3481 26.169 32.566 26.25 32.7451C16.5379 36.9943 7.7912 32.9972 3.42285 26.3535C-0.938944 19.7195 -0.917448 10.4863 6.91406 4.14648L7.29297 3.84668ZM28.7393 18.2578L28.7402 18.2588C28.7392 18.2581 28.7358 18.2562 28.7324 18.2539C28.7301 18.2523 28.7276 18.2501 28.7246 18.248L28.7393 18.2578ZM21.3262 26.0918L21.2412 25.9648L21.2393 25.9629C21.2378 25.9606 21.2359 25.9564 21.2324 25.9512C21.2255 25.9407 21.2142 25.9243 21.2002 25.9023C21.1722 25.8585 21.1311 25.7925 21.0801 25.707C20.9775 25.5352 20.8349 25.2854 20.6816 24.9785C20.3733 24.3613 20.0268 23.5282 19.8486 22.6406C19.67 21.7505 19.669 20.8454 20.0049 20.0508C20.3133 19.3211 20.9293 18.6276 22.0859 18.1162L22.3252 18.0166C23.6686 17.4852 25.1098 17.7257 26.2617 18.1367C26.8318 18.3402 27.3145 18.58 27.6543 18.7686C27.8238 18.8626 27.9574 18.9435 28.0469 19C28.0914 19.0281 28.1254 19.0498 28.1475 19.0645C28.1584 19.0717 28.1665 19.0774 28.1719 19.0811C28.1748 19.0831 28.1765 19.0844 28.1787 19.0859C28.1794 19.0864 28.1817 19.0876 28.1836 19.0889C28.1845 19.0895 28.1871 19.0916 28.1904 19.0938C28.1927 19.0952 28.1988 19.0989 28.2031 19.1016C28.2148 19.1084 28.3408 19.1589 28.4619 19.1738H28.8125L28.9316 18.8447C30.2752 15.1406 28.6238 10.6254 25.3506 7.72461C22.148 4.88646 17.3397 3.53167 12.0576 5.86133L11.5449 6.09766C5.98296 8.78845 4.53173 14.4207 6.11719 19.1621C7.65428 23.7582 12.0508 27.561 18.3164 27.167L18.9287 27.1162C19.4754 27.0587 20.4918 26.9057 21.0029 26.7129L21.3262 26.5908V26.0918Z" stroke="black"/>
</svg>
