<svg width="37" height="37" viewBox="0 0 37 37" fill="#3b82f6" xmlns="http://www.w3.org/2000/svg">
<path fill-rule="evenodd" clip-rule="evenodd" d="M3.4603 3.4603C1 5.92061 1 9.88041 1 17.8V19.2C1 27.1196 1 31.0794 3.4603 33.5397C5.92061 36 9.88041 36 17.8 36H19.2C27.1196 36 31.0794 36 33.5397 33.5397C36 31.0794 36 27.1196 36 19.2V17.8C36 9.88041 36 5.92061 33.5397 3.4603C31.0794 1 27.1196 1 19.2 1H17.8C9.88041 1 5.92061 1 3.4603 3.4603ZM6.90632 11.6459C7.09588 20.7459 11.6458 26.2146 19.6229 26.2146H20.0751V21.0084C23.0064 21.3 25.2229 23.4438 26.1124 26.2146H30.2542C29.1167 22.073 26.127 19.7834 24.2603 18.9084C26.127 17.8292 28.752 15.2042 29.3791 11.6459H25.6165C24.7998 14.5334 22.3793 17.1584 20.0751 17.4063V11.6459H16.3125V21.7375C13.9792 21.1542 11.0334 18.3251 10.9021 11.6459H6.90632Z" stroke="black"/>
</svg>
