<svg width="64" height="79" viewBox="0 0 64 79" fill="none" xmlns="http://www.w3.org/2000/svg">
<path d="M0.00901849 30.8936L0.0150308 61.7903L0.0811664 62.2392C0.408838 64.469 1.19044 66.3995 2.45904 68.1085C3.26169 69.192 4.34391 70.2545 5.40809 71.0027C7.33504 72.3615 9.37322 73.1367 11.7992 73.436C12.172 73.4809 12.7131 73.4899 16.4437 73.5108C18.7675 73.5228 20.7155 73.5408 20.7726 73.5498C20.8297 73.5587 21.0341 73.5797 21.2235 73.5976C24.882 73.9359 28.5285 75.6299 31.216 78.2398C31.4655 78.4822 31.7301 78.7516 31.8022 78.8414L31.9375 79L32.5537 78.3834C33.185 77.7549 33.5728 77.4167 34.2432 76.9139C36.4738 75.2318 39.1012 74.1184 41.8157 73.7054C42.9761 73.5288 42.925 73.5318 47.4974 73.5049C49.8211 73.4929 51.7751 73.4749 51.8413 73.463C51.9074 73.454 52.1299 73.4241 52.3373 73.4001C55.8605 72.9751 59.1493 71.1015 61.2927 68.303C62.6665 66.5072 63.4902 64.5319 63.8269 62.2243L63.896 61.7604L63.902 39.8277L63.911 17.898H61.1003H58.2895V39.6481C58.2895 59.2403 58.2865 61.4281 58.2444 61.6706C58.1272 62.338 57.9438 62.9306 57.6883 63.4694C56.5519 65.8697 54.0959 67.486 51.2701 67.6985C51.0086 67.7194 49.4845 67.7314 47.2268 67.7314C45.1195 67.7314 43.397 67.7434 43.1084 67.7613C40.003 67.9529 37.069 68.74 34.3454 70.1108C33.5247 70.5238 32.5567 71.0835 32.1569 71.3739L32.0126 71.4816L31.9315 71.4187C31.8864 71.3858 31.6489 71.2302 31.3994 71.0746C28.291 69.1351 24.6746 67.9858 20.992 67.7613C20.6824 67.7434 19.017 67.7314 16.8285 67.7314C14.5528 67.7314 13.0227 67.7194 12.7612 67.6985C10.8072 67.5518 9.03953 66.7617 7.71081 65.4417C6.64663 64.3852 5.99429 63.1282 5.72073 61.6197C5.67263 61.3593 5.66962 59.4468 5.6606 33.5723L5.65159 5.80634H26.1386H46.6256V2.90314V-6.10352e-05H23.3128H0L0.00901849 30.8936Z" fill="black"/>
<path d="M49.4193 2.90333V5.80653L51.8844 5.81252L54.3494 5.8215L43.1815 14.8394L32.0106 23.8543L24.7117 17.985C20.6954 14.7556 17.4037 12.1128 17.3947 12.1098C17.3886 12.1098 15.3715 13.723 12.9125 15.6984L8.44531 19.287V22.9624C8.44531 24.9826 8.45132 26.6378 8.46034 26.6378C8.46936 26.6378 10.4685 25.0365 12.9035 23.0821C15.3384 21.1247 17.3466 19.5144 17.3646 19.5025C17.3886 19.4905 20.0852 21.6395 24.6816 25.3358C28.6858 28.5563 31.9776 31.1991 31.9956 31.2051C32.0136 31.2111 37.9538 26.4342 45.1957 20.5889L58.3626 9.96081L58.3717 12.4929L58.3777 15.025H61.1884H63.9992V7.51254V0.000125885H56.7093H49.4193V2.90333Z" fill="black"/>
<path d="M22.4297 33.4047C21.3655 34.539 20.4847 35.4668 20.4727 35.4609C20.4606 35.4549 20.0698 35.0957 19.6039 34.6617C19.1379 34.2247 18.7381 33.8656 18.7111 33.8626C18.66 33.8536 16.4745 36.1433 16.4745 36.2031C16.4745 36.2241 17.7551 37.4362 19.3243 38.8968C21.8645 41.2703 29.5513 48.5073 29.5513 48.5312C29.5513 48.5372 28.427 49.5997 27.8889 50.0996L27.7175 50.2612L27.6484 50.1983L27.5822 50.1385L26.981 50.7012C26.6503 51.0124 26.3678 51.2668 26.3497 51.2698C26.3347 51.2698 26.2445 51.186 26.1513 51.0843L25.983 50.8987L25.8327 51.0304C25.7515 51.1052 25.3787 51.4524 25.006 51.8056L24.3236 52.4461L24.5641 52.7035C24.6933 52.8442 24.8015 52.9669 24.8015 52.9758C24.8015 52.9878 24.6272 53.1584 24.4137 53.3589L24.026 53.7241L23.6652 53.344L23.3045 52.9639L22.8806 53.3619L22.4597 53.76L21.9096 53.4906C21.1671 53.1255 20.6951 52.9579 19.9767 52.8082C19.4746 52.7035 18.5938 52.6765 18.1128 52.7514C16.5015 52.9998 15.3862 54.0683 15.0586 55.6695C14.9804 56.0437 14.9503 56.8099 14.9984 57.2259C15.1277 58.3662 15.5846 59.6143 16.261 60.6948C16.3813 60.8833 16.4715 61.045 16.4685 61.0599C16.4624 61.0719 16.0055 61.5059 15.4524 62.0267C14.8992 62.5444 14.4453 62.9844 14.4453 62.9994C14.4453 63.0143 14.9594 63.568 15.5846 64.2295L16.724 65.4297L16.8021 65.3579C16.8743 65.295 18.3623 63.9033 18.66 63.6219L18.7832 63.5052L19.0808 63.7147C20.2412 64.5348 21.5158 65.0466 22.7574 65.1902C23.1812 65.2381 23.9147 65.2082 24.2965 65.1274C25.6222 64.849 26.5812 63.999 27.0081 62.73C27.3267 61.7812 27.2937 60.5631 26.9149 59.321C26.8127 58.9828 26.5962 58.4351 26.4489 58.1418L26.3287 57.9023L26.488 57.7527C26.5782 57.6689 26.7676 57.4893 26.9149 57.3546L27.1764 57.1092L26.7646 56.6722C26.5361 56.4298 26.3467 56.2202 26.3407 56.2083C26.3317 56.1843 26.6173 55.903 26.978 55.5768L27.1253 55.4451L27.4319 55.7713L27.7416 56.1005L28.3969 55.487C28.7607 55.1488 29.1304 54.8016 29.2206 54.7208L29.3829 54.5711L29.1905 54.3526L28.9981 54.1371L29.2236 53.9216C29.3469 53.8049 29.6204 53.5415 29.8339 53.341L30.2217 52.9729L30.1104 52.8591L29.9992 52.7454L38.7592 44.5176L47.5191 36.2929L46.3798 35.0927C45.7545 34.4343 45.2314 33.8925 45.2194 33.8895C45.2074 33.8835 44.8136 34.2427 44.3416 34.6857C43.6532 35.3322 43.4758 35.4818 43.4428 35.4549C43.4187 35.4369 42.5409 34.5031 41.4918 33.3807L39.5858 31.3395L39.4506 31.4472C39.0928 31.7406 38.681 32.2823 38.5096 32.6804C38.3353 33.0874 38.2902 33.3119 38.2872 33.7997C38.2842 34.2277 38.2812 34.2427 38.2241 34.2247C38.191 34.2158 38.0226 34.2008 37.8483 34.1888C37.226 34.1559 36.6398 34.2966 36.1618 34.5959C35.9063 34.7575 35.284 35.2813 35.2991 35.3232C35.3051 35.3322 36.1197 36.2091 37.1118 37.2656C38.1038 38.3251 38.9786 39.259 39.0598 39.3458L39.2011 39.5014L35.6358 42.8476C33.6727 44.6912 32.0494 46.1967 32.0284 46.1967C31.9833 46.1967 24.7955 39.5044 24.8076 39.4745C24.8136 39.4625 25.6944 38.5197 26.7646 37.3794L28.7156 35.3022L28.4931 35.0987C27.961 34.6078 27.5101 34.3624 26.8968 34.2367C26.6353 34.1828 26.5211 34.1739 26.1393 34.1858L25.6884 34.2008L25.6854 33.7788C25.6823 33.4286 25.6703 33.3089 25.6072 33.0724C25.4509 32.4918 25.2314 32.1297 24.7504 31.6538C24.5731 31.4802 24.4137 31.3365 24.3957 31.3365C24.3807 31.3365 23.4939 32.2673 22.4297 33.4047ZM20.1991 55.8012C21.0468 56.0347 21.8284 56.5136 22.595 57.2708C23.3947 58.0579 23.9328 58.9499 24.1763 59.8867C24.2514 60.174 24.2664 60.2967 24.2695 60.608C24.2755 61.1707 24.1702 61.4909 23.8817 61.8022C23.7073 61.9907 23.5239 62.1015 23.2534 62.1823C23.0219 62.2541 22.4748 62.2541 22.1621 62.1823C20.8905 61.9009 19.5648 60.9252 18.7231 59.6532C17.8814 58.3812 17.6589 57.0343 18.1699 56.2921C18.3714 55.9958 18.66 55.8102 19.0447 55.7294C19.2732 55.6785 19.8895 55.7174 20.1991 55.8012Z" fill="black"/>
<path d="M33.8119 50.3359C33.1535 50.9555 32.6124 51.4703 32.6094 51.4793C32.6034 51.4912 33.1836 52.0479 33.881 52.6944C33.9171 52.7303 33.9111 52.7483 33.8269 52.8351C33.7728 52.889 33.7307 52.9488 33.7307 52.9668C33.7307 52.9847 34.0013 53.2511 34.332 53.5594C34.6626 53.8677 34.9332 54.1281 34.9332 54.134C34.9332 54.143 34.852 54.2388 34.7528 54.3466C34.6536 54.4573 34.5724 54.5531 34.5724 54.565C34.5724 54.574 34.846 54.8374 35.1797 55.1487C35.5134 55.4599 35.8801 55.8011 35.9944 55.9089L36.2048 56.1034L36.5114 55.7742L36.8211 55.448L37.0555 55.6605C37.1878 55.7772 37.3652 55.9478 37.4554 56.0406L37.6177 56.2052L37.1878 56.6601L36.7549 57.1121L36.8722 57.2198C36.9383 57.2767 37.1247 57.4533 37.284 57.6059L37.5786 57.8873L37.4914 58.0579C37.1096 58.8121 36.794 59.8297 36.7038 60.5899C36.6467 61.0628 36.6858 61.9278 36.776 62.3139C37.0585 63.4931 37.6898 64.3132 38.7059 64.819C39.5597 65.244 40.5788 65.3428 41.7181 65.1094C42.7733 64.8939 43.8885 64.388 44.8746 63.6787L45.1391 63.4872L45.2894 63.6308C46.0981 64.397 47.2404 65.4565 47.2585 65.4565C47.2765 65.4565 48.7255 63.9481 49.465 63.1579L49.5552 63.0621L49.4349 62.9394C49.3718 62.8706 48.9028 62.4246 48.3948 61.9488C47.8837 61.4729 47.4689 61.0778 47.4689 61.0718C47.4689 61.0658 47.5651 60.9132 47.6823 60.7366C47.9529 60.3206 48.3828 59.4676 48.5571 58.9917C48.8487 58.2015 48.981 57.4742 48.981 56.6871C48.981 55.8909 48.8607 55.3492 48.5511 54.7267C48.2745 54.167 47.8777 53.718 47.3396 53.3529C45.9207 52.3921 43.7412 52.5178 41.661 53.6821L41.4626 53.7928L41.0597 53.4157C40.8403 53.2092 40.6509 53.0326 40.6419 53.0296C40.6329 53.0236 40.4705 53.1823 40.2842 53.3798C40.0948 53.5774 39.9324 53.742 39.9234 53.748C39.9024 53.7569 39.1659 53.0715 39.1478 53.0296C39.1418 53.0177 39.238 52.895 39.3643 52.7603C39.4905 52.6226 39.5927 52.5029 39.5927 52.4939C39.5927 52.4819 39.229 52.1287 38.7871 51.7097L37.9784 50.9465L37.783 51.1411L37.5876 51.3326L36.9774 50.7609L36.3671 50.1893L36.298 50.2551L36.2288 50.318L35.6366 49.7613C35.309 49.456 35.0354 49.2046 35.0264 49.2046C35.0174 49.2076 34.4702 49.7164 33.8119 50.3359ZM45.0068 55.7772C45.6502 55.9688 45.9808 56.4267 46.0169 57.1869C46.0981 58.8301 44.598 60.9641 42.7402 61.85C42.151 62.1313 41.685 62.254 41.2101 62.254C40.5577 62.254 40.0888 62.0086 39.8392 61.5417C39.5146 60.9341 39.6138 59.9225 40.0918 58.9438C40.9034 57.2887 42.6079 55.9508 44.2072 55.7173C44.3725 55.6934 44.8415 55.7293 45.0068 55.7772Z" fill="black"/>
</svg>
