<svg width="88" height="88" viewBox="0 0 88 88" fill="none" xmlns="http://www.w3.org/2000/svg">
<path fill-rule="evenodd" clip-rule="evenodd" d="M0 43.9527C0 68.2891 19.7317 88 44.0001 88C68.2684 88 88 68.2886 88 43.9527C88 19.7073 68.2684 -6.10352e-05 44.0001 -6.10352e-05C19.7317 -6.10352e-05 0 19.7077 0 43.9527ZM0.926211 43.9527C0.926211 20.1708 20.1924 0.833206 43.9996 0.833206C67.8052 0.833206 87.165 20.1708 87.165 43.9527C87.165 67.8256 67.8052 87.1654 43.9996 87.1654C20.1924 87.1654 0.926211 67.8256 0.926211 43.9527Z" fill="black"/>
<path fill-rule="evenodd" clip-rule="evenodd" d="M5.2778 43.9527C5.2778 22.5772 22.6019 5.18146 43.9968 5.18146C65.3958 5.18146 82.8088 22.5772 82.8088 43.9527C82.8088 65.4193 65.3953 82.8177 43.9968 82.8177C22.6019 82.8177 5.2778 65.4193 5.2778 43.9527ZM2.03516 43.9527C2.03516 67.1782 20.8406 86.0545 43.9963 86.0545C67.1547 86.0545 85.9561 67.1782 85.9561 43.9527C85.9561 20.8188 67.1547 1.9442 43.9963 1.9442C20.8401 1.9442 2.03516 20.8188 2.03516 43.9527Z" fill="black"/>
<path fill-rule="evenodd" clip-rule="evenodd" d="M31.7673 41.0837L27.5078 47.1954L53.2562 47.1006L50.7574 41.0837H31.7673Z" fill="black"/>
<path fill-rule="evenodd" clip-rule="evenodd" d="M45.0118 23.1326L40.75 29.2396L49.6415 29.425L50.3822 23.225L45.0118 23.1326Z" fill="black"/>
<path fill-rule="evenodd" clip-rule="evenodd" d="M38.437 31.9202L33.3438 38.5814H50.1054L49.3674 31.9202H38.437Z" fill="black"/>
<path fill-rule="evenodd" clip-rule="evenodd" d="M19.4511 58.8535L15.0977 64.9592L70.6753 65.0485L62.0596 58.9427L19.4511 58.8535Z" fill="black"/>
<path fill-rule="evenodd" clip-rule="evenodd" d="M54.2781 10.269L46.9609 20.7258H50.9461L54.2781 10.269Z" fill="black"/>
<path fill-rule="evenodd" clip-rule="evenodd" d="M25.6485 50.0532L21.2969 56.3456H59.6435L54.3651 49.8711L25.6489 50.0532H25.6485Z" fill="black"/>
</svg>
