<svg width="58" height="90" viewBox="0 0 58 90" fill="none" xmlns="http://www.w3.org/2000/svg">
<path d="M0 0.000701904C1.06409 0.141922 2.1075 0.435661 3.08116 0.884056C4.03706 1.31691 4.94387 1.8578 5.93539 2.21087C7.00509 2.59924 8.14598 2.76729 9.28176 2.79342C10.7804 2.79553 12.2868 2.85909 13.7627 3.13659C14.9462 3.36114 16.1247 3.70996 17.1574 4.34053C18.2599 5.03465 19.1482 6.10655 19.506 7.36346C19.9946 9.09487 19.6247 10.9209 19.1219 12.605C18.8623 13.3846 18.3274 14.0356 18.0429 14.8046C17.6973 15.7007 17.693 16.6822 17.8097 17.622C18.6198 17.6241 19.4299 17.6185 20.24 17.6248C20.6134 17.3078 20.9121 16.918 21.2378 16.5558C22.2706 15.3751 23.3466 14.2044 24.6519 13.3133C25.368 12.838 26.181 12.4327 27.0602 12.4151C28.0793 12.4129 29.0992 12.4151 30.1192 12.4144C30.6618 12.4207 31.2202 12.3706 31.7444 12.5457C32.6897 12.8423 33.4962 13.446 34.2437 14.0744C35.2217 14.9154 36.0944 15.8673 36.955 16.8248C37.1819 17.0691 37.3974 17.3254 37.6499 17.5458C37.7074 17.6044 37.7787 17.6291 37.8633 17.6213C38.6342 17.6241 39.4052 17.6199 40.1769 17.6227C40.2658 16.4915 40.1599 15.3158 39.6535 14.2835C39.347 13.6352 38.9592 13.0153 38.7992 12.3091C38.4024 10.8891 38.1051 9.39356 38.3647 7.9213C38.5354 6.92284 39.0182 5.98298 39.7317 5.25921C40.4749 4.4281 41.4927 3.89215 42.5432 3.54474C43.9302 3.08788 45.3933 2.90993 46.847 2.83437C47.9762 2.77153 49.1134 2.84921 50.2333 2.66562C51.3098 2.5138 52.3453 2.14026 53.3041 1.63679C54.2978 1.12768 55.2961 0.603729 56.3841 0.31987C56.9136 0.172287 57.4553 0.0741425 58 0C57.5168 1.19123 57.0314 2.43753 56.0999 3.36538C55.4701 3.99524 54.6997 4.46764 53.9012 4.85459C53.434 5.09538 52.9493 5.30439 52.4403 5.43855C50.139 6.11855 47.7205 6.12985 45.3541 6.39677C44.4245 6.52175 43.4543 6.66156 42.6471 7.16997C42.1072 7.50185 41.736 8.07523 41.6506 8.70014C41.4899 9.80664 41.7673 10.9188 42.1087 11.966C42.502 13.0725 42.9921 14.1733 43.7559 15.0807C44.1933 15.623 44.933 15.897 45.6229 15.7826C46.4259 15.6569 47.1535 15.2763 47.9115 15.0065C48.6067 14.741 49.3474 14.5687 50.0958 14.6231C49.9932 15.4768 49.5442 16.2648 48.9189 16.8495C48.1 17.6319 47.0476 18.1347 45.9629 18.439C45.0169 18.6946 44.0226 18.8104 43.0475 18.677C43.1549 19.1126 43.2844 19.6006 43.0852 20.0306C42.9145 20.3328 42.5454 20.407 42.2509 20.5376C41.9949 20.6322 41.7822 20.8088 41.6136 21.0185C42.5603 22.298 43.625 23.4864 44.7438 24.619C45.0668 24.9509 45.3783 25.2934 45.6933 25.6323C42.9686 25.698 40.2424 25.7177 37.5176 25.7721C35.3234 25.7968 33.1299 25.8491 30.9357 25.866C30.9357 32.2699 30.9349 38.6731 30.9364 45.077C33.1278 44.9188 35.2757 44.2586 37.1918 43.193C38.6172 42.3909 39.9309 41.3563 40.9301 40.0585C41.7324 39.0248 42.3213 37.8165 42.5624 36.5299C42.8554 35.0103 42.6357 33.4265 42.0738 31.9923C41.7688 31.1033 41.2353 30.2567 40.4302 29.737C40.0133 29.4736 39.4864 29.3063 38.9992 29.4658C38.4785 29.6318 38.0738 30.0752 37.945 30.602C37.7011 31.3773 37.6392 32.1999 37.3526 32.9633C37.2324 33.2634 37.0546 33.5938 36.7223 33.6969C36.0011 33.9243 35.2032 34.0754 34.4671 33.8269C33.9549 33.6567 33.5538 33.2387 33.3589 32.7444C33.0701 32.022 33.083 31.2135 33.2437 30.4629C33.3661 29.9439 33.5467 29.4065 33.9449 29.0287C34.7857 28.1426 35.9642 27.6398 37.1563 27.428C39.3746 27.0325 41.7688 27.6532 43.4686 29.1347C44.9928 30.4332 45.8975 32.327 46.2652 34.2632C46.5739 36.2192 46.4509 38.2622 45.7652 40.1305C45.0106 42.2242 43.5689 44.0192 41.842 45.4117C39.9764 46.9249 37.8085 48.0243 35.578 48.9027C35.5752 49.1598 35.5758 49.4168 35.5765 49.6745C37.1733 49.712 38.583 50.6695 39.6143 51.8162C41.3818 53.7984 42.2794 56.4364 42.4245 59.0548C42.6115 61.726 41.6685 64.4008 40.0781 66.5354C38.4678 68.7117 36.1136 70.2786 33.551 71.1394C33.5481 71.4628 33.5503 71.7862 33.5481 72.1096C34.6405 72.2572 35.6086 72.8574 36.4437 73.543C37.5567 74.4815 38.4692 75.6607 39.0759 76.9819C39.6556 78.2373 39.9288 79.6439 39.7687 81.0223C39.6343 82.2686 39.268 83.5248 38.5019 84.5395C37.8057 85.4752 36.8042 86.1488 35.726 86.5809C34.2558 87.1769 32.6789 87.4318 31.1306 87.7425C31.0638 87.7538 31.0004 87.7729 30.9392 87.799C30.9293 88.532 30.9392 89.2663 30.935 90C29.649 90 28.3632 90 27.0772 89.9993C27.0772 89.2614 27.0772 88.5235 27.0772 87.7856C25.4535 87.4459 23.7913 87.2059 22.2477 86.5739C21.2186 86.1531 20.2485 85.5267 19.5678 84.6398C18.6596 83.4909 18.2933 82.0166 18.198 80.5838C18.0778 79.365 18.3239 78.1272 18.8246 77.0136C19.4064 75.7081 20.3154 74.5591 21.4036 73.6313C22.2778 72.9075 23.2912 72.2699 24.4392 72.1096C24.3844 71.7884 24.3211 71.4685 24.2664 71.1479C22.0118 70.3789 19.9085 69.081 18.3751 67.2514C17.2677 65.9458 16.4576 64.3973 15.9924 62.7556C15.3736 60.5659 15.3971 58.2067 16.0216 56.0205C16.5977 54.0461 17.6973 52.1742 19.3366 50.8891C20.2158 50.2028 21.2834 49.6985 22.4178 49.6752C22.4185 49.4162 22.4185 49.1576 22.4178 48.8999C20.1156 47.9996 17.8829 46.8529 15.9768 45.2711C14.3238 43.9034 12.949 42.1614 12.1901 40.1496C11.4838 38.3094 11.3067 36.2976 11.5194 34.348C11.9043 32.1646 13.0294 30.0406 14.88 28.7435C16.2769 27.75 18.0152 27.2578 19.7293 27.3164C20.9662 27.363 22.2158 27.6786 23.2556 28.3607C23.7002 28.663 24.1383 29.0132 24.4143 29.4814C24.8119 30.2299 24.9313 31.1026 24.8546 31.938C24.7806 32.6046 24.4875 33.3029 23.8873 33.6616C23.2649 34.0373 22.4854 33.9984 21.8012 33.8417C21.4861 33.7548 21.1312 33.7111 20.8865 33.4759C20.5892 33.1758 20.464 32.7592 20.3694 32.3602C20.2037 31.6859 20.1681 30.9812 19.9334 30.3238C19.7954 29.9107 19.4205 29.6162 19.0209 29.4694C18.4078 29.2709 17.762 29.5555 17.2791 29.9262C16.4718 30.5617 15.8815 31.4606 15.5963 32.4421C15.1061 33.9582 15.0315 35.6197 15.4931 37.1528C16.0792 39.1716 17.4782 40.8726 19.146 42.1254C21.4306 43.8356 24.2251 44.8651 27.0772 45.0756C27.0779 38.6723 27.0772 32.2691 27.0772 25.8667C22.1618 25.801 17.2463 25.722 12.3316 25.6365C12.9746 24.7376 13.8033 23.9969 14.5529 23.1919C15.2001 22.5091 15.7954 21.7797 16.3622 21.0305C16.1603 20.7071 15.7968 20.5546 15.4484 20.4402C15.1731 20.3484 14.8623 20.2071 14.7783 19.9035C14.6737 19.489 14.821 19.066 14.949 18.6734C13.7925 18.8358 12.6097 18.6473 11.5123 18.2752C10.4113 17.884 9.34584 17.276 8.62393 16.3439C8.23623 15.8447 7.97663 15.2473 7.89277 14.6217C9.03211 14.5306 10.0969 15.0016 11.1274 15.4161C11.8345 15.6865 12.6361 15.9775 13.3836 15.6816C13.9142 15.5079 14.289 15.0687 14.5962 14.6273C15.2242 13.7172 15.6681 12.6919 15.9953 11.6411C16.2869 10.6695 16.4867 9.63857 16.3125 8.6267C16.2143 8.04273 15.8566 7.51315 15.3522 7.1968C14.5408 6.68486 13.5678 6.53093 12.6318 6.40878C10.1047 6.11573 7.51076 6.13409 5.06765 5.34676C4.63309 5.22601 4.24332 4.99582 3.85281 4.77904C3.04204 4.32147 2.2789 3.75586 1.69779 3.02502C0.973013 2.11341 0.499288 1.04223 0 0.000701904ZM22.9135 54.162C21.947 54.8787 21.2371 55.9061 20.8467 57.0352C20.2001 58.9185 20.294 61.0389 21.0878 62.865C21.676 64.2405 22.5779 65.4939 23.74 66.4479C24.6724 67.2091 25.8418 67.7888 27.0765 67.7224C27.0779 62.7845 27.0772 57.8466 27.0772 52.9086C25.6092 52.9115 24.0999 53.2715 22.9135 54.162ZM30.9357 52.9079C30.9314 57.8437 30.9436 62.7789 30.93 67.7147C31.7778 67.7839 32.6015 67.4647 33.3198 67.0424C34.3917 66.3935 35.2786 65.4734 35.9849 64.4489C36.7182 63.3769 37.2566 62.1617 37.4692 60.8794C37.6947 59.3972 37.5375 57.8423 36.9244 56.466C36.4059 55.3009 35.5083 54.2969 34.371 53.6994C33.3219 53.1374 32.1192 52.9157 30.9357 52.9079ZM23.1689 76.3005C22.2414 76.8187 21.4776 77.6435 21.097 78.6363C20.612 79.8544 20.6824 81.2391 21.1248 82.4586C21.592 83.7572 22.4804 84.9103 23.6453 85.6665C24.6504 86.3288 25.8702 86.6325 27.0715 86.5788C27.085 82.8399 27.0737 79.101 27.0772 75.3627C25.7308 75.4009 24.3517 75.629 23.1689 76.3005ZM30.9357 75.3621C30.9329 79.0981 30.9407 82.8343 30.9322 86.5697C31.8667 86.6247 32.8177 86.4418 33.654 86.0217C34.9841 85.3741 36.0226 84.2119 36.6214 82.8766C37.1741 81.6388 37.3661 80.2025 36.9571 78.8941C36.6257 77.7868 35.8213 76.8491 34.812 76.2877C33.6392 75.6218 32.27 75.4015 30.9357 75.3621ZM2.84787 5.59178C4.49084 6.216 6.05632 7.06193 7.77897 7.46159C8.69292 7.67061 9.63959 7.73135 10.572 7.63884C10.9284 7.62472 11.2619 7.47784 11.6183 7.46372C12.0877 7.42982 12.5984 7.55692 12.9213 7.91634C13.4974 8.50313 13.4462 9.62588 12.7207 10.0721C12.4433 10.2727 12.0877 10.2225 11.7662 10.2423C10.1275 10.2557 8.45181 10.1653 6.89843 9.60186C6.03068 9.29117 5.22625 8.80042 4.5698 8.15643C3.82724 7.42841 3.27247 6.53234 2.84787 5.59178ZM50.4513 7.40794C52.0923 6.98285 53.5989 6.18705 55.1769 5.58826C54.607 6.78796 53.8389 7.93401 52.7465 8.72486C51.4663 9.66753 49.8633 10.0488 48.299 10.1774C47.404 10.243 46.5007 10.279 45.6044 10.2077C44.719 9.98035 44.4408 8.79971 44.9338 8.09924C45.2808 7.55058 46.002 7.37474 46.6137 7.48984C47.8712 7.79347 49.2023 7.71934 50.4513 7.40794ZM5.26251 10.3899C6.75901 11.1003 8.39847 11.4978 10.055 11.579C10.5528 11.6108 11.0521 11.6129 11.55 11.6277C11.9375 11.7464 12.3032 11.9942 12.513 12.3438C12.6865 12.634 12.6865 13.0216 12.4831 13.297C12.2932 13.5526 12.0151 13.7609 11.705 13.8414C10.3045 13.8619 8.83866 13.6946 7.61183 12.9736C6.57837 12.3833 5.80381 11.43 5.26251 10.3899ZM50.4498 11.2125C51.2414 11.0212 52.0057 10.7302 52.748 10.3984C52.1926 11.4632 51.3797 12.4228 50.3184 13.0167C49.0944 13.703 47.6521 13.8647 46.2687 13.84C45.8726 13.7179 45.4836 13.4213 45.3676 13.0089C45.2509 12.5775 45.5298 12.1517 45.8704 11.9067C46.0917 11.7584 46.3392 11.596 46.6187 11.6193C47.904 11.6122 49.2001 11.5296 50.4498 11.2125Z" fill="black"/>
</svg>
