<svg width="198" height="18" viewBox="0 0 198 18" fill="none" xmlns="http://www.w3.org/2000/svg">
<path d="M193.155 -0.000174522H193.547C194.252 0.0308666 194.949 0.215008 195.568 0.546152C196.164 0.863037 196.689 1.30954 197.093 1.84454C197.641 2.56617 197.958 3.45068 198 4.34944V4.75994C197.961 5.58493 197.692 6.3993 197.221 7.08465C196.855 7.62157 196.372 8.08057 195.813 8.42199C195.195 8.80163 194.484 9.03457 193.756 9.0944C193.018 9.15791 192.266 9.04722 191.582 8.77063C190.926 8.50725 190.335 8.09351 189.865 7.57338C189.466 7.13112 189.155 6.61185 188.957 6.05378C188.677 5.27026 188.625 4.4113 188.802 3.60001C188.942 2.94965 189.232 2.33101 189.643 1.80221C190.043 1.28264 190.56 0.84934 191.146 0.540282C191.761 0.212825 192.455 0.0305662 193.155 -0.000174522Z" fill="black"/>
<path d="M4.09472 4.67693C4.76634 4.39093 5.49437 4.2241 6.22766 4.21631C6.78407 4.20589 7.34216 4.27245 7.87859 4.4181C8.53208 4.5952 9.15151 4.89549 9.68514 5.30599C10.2139 5.71119 10.6553 6.22399 10.9802 6.7994C11.1477 6.7997 11.3151 6.7994 11.4826 6.7994C11.4832 6.04203 11.4825 5.2844 11.4829 4.52687C12.4612 4.52703 13.4394 4.52687 14.4176 4.52703C14.418 8.89662 14.4179 13.266 14.4179 17.6355C13.4394 17.6356 12.4612 17.6355 11.4829 17.6355C11.4826 16.8871 11.4829 16.1385 11.4829 15.39C11.3146 15.391 11.146 15.3874 10.9778 15.3921C10.5659 16.1322 9.95124 16.7617 9.21826 17.2031C8.29597 17.7604 7.19753 18.0103 6.11906 17.9727C4.91968 17.935 3.74758 17.5004 2.79227 16.7951C1.68424 15.9838 0.855999 14.8268 0.408799 13.5477C0.160069 12.846 0.0291033 12.107 0 11.3655V10.8599C0.0226529 10.2917 0.104413 9.72481 0.256679 9.17543C0.53301 8.16819 1.03512 7.22006 1.72445 6.42446C2.36877 5.67973 3.17932 5.06744 4.09472 4.67693ZM6.9446 6.9145C5.93917 6.96593 4.95267 7.3779 4.2362 8.07412C3.64615 8.63294 3.23918 9.36943 3.0647 10.1541C2.92099 10.7973 2.92489 11.4715 3.07641 12.113C3.23527 12.7866 3.56516 13.4224 4.03608 13.9386C4.50472 14.4561 5.11109 14.8522 5.77898 15.078C6.52649 15.3318 7.34531 15.376 8.11851 15.2132C8.7508 15.0814 9.35194 14.8065 9.86019 14.415C10.3997 14.0015 10.8325 13.4564 11.1104 12.843C11.4231 12.1562 11.5389 11.3871 11.4564 10.6403C11.3847 9.97321 11.1493 9.32195 10.768 8.76373C10.3956 8.21274 9.88404 7.75329 9.29357 7.43377C8.58205 7.04664 7.75651 6.86833 6.9446 6.9145ZM39.3695 4.26304C40.1329 4.17929 40.9091 4.20469 41.6664 4.33111C42.7245 4.50836 43.7449 4.9271 44.5929 5.57524C45.3744 6.16729 46.0073 6.93639 46.4697 7.7893C46.6905 8.19964 46.8798 8.62865 47.0066 9.07621C45.9746 9.07666 44.9427 9.07651 43.9108 9.07651C43.8171 8.85001 43.6888 8.63881 43.5436 8.44067C43.228 8.01358 42.8159 7.65482 42.3435 7.40141C41.8489 7.13303 41.2931 6.98226 40.7313 6.93052C40.3273 6.8926 39.9179 6.89892 39.5173 6.96695C38.8326 7.07982 38.1785 7.37158 37.6452 7.80751C37.1783 8.18584 36.8051 8.67113 36.5504 9.20877C36.2023 9.94247 36.0765 10.77 36.1564 11.5733C36.2254 12.274 36.4608 12.9619 36.8597 13.5493C37.1941 14.0461 37.644 14.4683 38.1686 14.769C38.7273 15.0922 39.3687 15.2727 40.0162 15.3034C40.6218 15.3302 41.2363 15.256 41.8074 15.0534C42.2909 14.8821 42.7387 14.6131 43.1097 14.2637C43.4465 13.9447 43.7303 13.5653 43.9108 13.1401C44.9431 13.1401 45.9746 13.1397 47.0066 13.1401C46.838 13.7265 46.5715 14.2833 46.2508 14.8042C45.8406 15.4639 45.3233 16.0629 44.71 16.5499C44.003 17.1159 43.1681 17.5241 42.2855 17.7521C41.7091 17.9043 41.1138 17.9774 40.5178 18H39.9851C39.8353 17.9915 39.6859 17.9856 39.5369 17.9709C38.2819 17.8596 37.0559 17.4208 36.0336 16.6969C35.016 15.9826 34.2044 14.9908 33.7133 13.8629C33.0478 12.3419 32.9645 10.5874 33.4696 9.00935C33.8577 7.79163 34.6047 6.68712 35.5975 5.86214C36.6549 4.97647 37.9881 4.41708 39.3695 4.26304ZM55.6364 4.21838C56.471 4.19133 57.3105 4.29627 58.1081 4.53892C59.5065 4.96014 60.7746 5.79791 61.6821 6.92345C62.159 7.5109 62.5366 8.17541 62.7912 8.88338C63.3369 10.3884 63.3047 12.0853 62.7021 13.5691C62.194 14.8322 61.2838 15.9303 60.1432 16.6981C59.4926 17.1373 58.7691 17.4716 58.0098 17.6865C56.3673 18.1507 54.5626 18.0582 52.9846 17.4097C51.6812 16.8775 50.5402 15.9616 49.769 14.8002C49.3738 14.2086 49.0747 13.5556 48.8884 12.8726C48.4402 11.2463 48.6319 9.45702 49.431 7.96392C50.0601 6.77457 51.0586 5.78132 52.2522 5.13081C53.2834 4.56465 54.4563 4.25601 55.6364 4.21838ZM55.459 6.9277C54.6406 6.99987 53.8391 7.29647 53.1947 7.799C52.6628 8.2092 52.2419 8.75346 51.9738 9.36224C51.642 10.1158 51.5421 10.9616 51.6639 11.7722C51.7641 12.4389 52.0272 13.0834 52.4362 13.6259C52.854 14.1825 53.422 14.6293 54.0665 14.9092C54.8177 15.2389 55.6629 15.3455 56.4779 15.2482C57.1891 15.1626 57.8808 14.9065 58.4619 14.4937C59.0122 14.1067 59.4604 13.5822 59.7557 12.985C60.1132 12.2697 60.2473 11.454 60.1666 10.6634C60.0937 9.93897 59.8294 9.23217 59.3955 8.63998C58.9949 8.0906 58.4538 7.63951 57.8347 7.34294C57.1039 6.98768 56.2697 6.85174 55.459 6.9277ZM90.6582 4.84771C92.0024 4.24762 93.5351 4.07273 94.9868 4.32832C96.1954 4.5417 97.3452 5.06538 98.2888 5.83494C99.1921 6.56853 99.9095 7.52328 100.34 8.59355C100.82 9.77143 100.947 11.0826 100.717 12.3298C100.519 13.4033 100.049 14.4263 99.363 15.2851C98.5884 16.261 97.5411 17.0251 96.3674 17.4785C95.039 17.9965 93.5555 18.1089 92.1579 17.8232C90.8184 17.5516 89.5602 16.8968 88.5913 15.9495C88.0924 15.4645 87.6696 14.9051 87.3428 14.2958C87.0255 13.7061 86.8013 13.0694 86.6738 12.4149C85.8496 12.4164 85.0254 12.4151 84.2013 12.4157C84.2013 14.1555 84.2013 15.8956 84.2013 17.6356C83.2227 17.6355 82.2446 17.6356 81.266 17.6355C81.266 13.266 81.266 8.89662 81.266 4.52703C82.2442 4.52657 83.222 4.52789 84.2001 4.52627C84.2028 6.26647 84.2001 8.00666 84.2013 9.74701C85.0258 9.74716 85.85 9.74686 86.6745 9.74716C86.8274 8.99641 87.1093 8.27079 87.5075 7.61219C88.2349 6.40256 89.3525 5.42549 90.6582 4.84771ZM93.2528 6.92729C92.8338 6.96668 92.4194 7.06308 92.0304 7.22066C91.4148 7.46711 90.8637 7.86587 90.4428 8.37013C89.9796 8.92101 89.6755 9.59417 89.5495 10.2958C89.4059 11.0967 89.4734 11.9383 89.7734 12.6986C90.0292 13.3528 90.4597 13.9414 91.0161 14.3819C91.5212 14.784 92.1272 15.0608 92.7632 15.1906C93.4337 15.3268 94.1369 15.3133 94.7998 15.1438C95.3532 15.002 95.8762 14.7468 96.3233 14.3967C96.7369 14.0741 97.0833 13.6702 97.3421 13.2187C97.9351 12.1834 98.0484 10.9066 97.6851 9.77775C97.4996 9.2029 97.1862 8.66763 96.7691 8.22391C96.3832 7.81221 95.91 7.47933 95.3877 7.2552C94.721 6.96623 93.9775 6.85851 93.2528 6.92729ZM140.7 4.3959C141.493 4.18486 142.332 4.16412 143.139 4.30229C143.859 4.42634 144.557 4.68957 145.164 5.08964C145.828 5.52234 146.379 6.11642 146.765 6.7997C146.932 6.79838 147.098 6.80147 147.266 6.79793C147.264 6.04101 147.266 5.28409 147.266 4.52703C148.243 4.52703 149.221 4.52657 150.2 4.52718C150.2 8.89662 150.2 13.2662 150.2 17.6355C149.221 17.6346 148.243 17.6376 147.264 17.634C147.267 16.8865 147.263 16.139 147.266 15.3915C147.098 15.3882 146.932 15.3907 146.765 15.39C146.415 16.0108 145.929 16.5585 145.343 16.9776C144.777 17.3864 144.122 17.6733 143.436 17.8288C142.595 18.0182 141.711 18.0284 140.869 17.8426C140.102 17.675 139.374 17.3485 138.731 16.9058C137.611 16.1355 136.758 15.0159 136.273 13.7653C135.643 12.1401 135.616 10.296 136.206 8.65541C136.672 7.35585 137.526 6.18595 138.661 5.36759C139.272 4.92548 139.965 4.58802 140.7 4.3959ZM142.563 6.92669C141.98 6.98019 141.408 7.15052 140.897 7.43083C140.281 7.76665 139.756 8.26094 139.386 8.84959C138.542 10.1796 138.53 11.9661 139.349 13.309C139.711 13.9069 140.232 14.4117 140.847 14.758C141.554 15.1587 142.382 15.3447 143.196 15.3036C143.959 15.2686 144.712 15.0336 145.35 14.6218C145.933 14.2486 146.419 13.7309 146.75 13.1305C147.128 12.4493 147.301 11.6639 147.26 10.8906C147.223 10.1046 146.959 9.32827 146.496 8.68393C146.12 8.15585 145.615 7.71596 145.036 7.41142C144.285 7.01326 143.412 6.84733 142.563 6.92669ZM18.5424 4.52703C22.3899 4.52703 26.2375 4.52687 30.0851 4.52703C30.0851 5.38964 30.0852 6.25194 30.0848 7.11437C27.2157 7.11437 24.3466 7.11437 21.4775 7.11437C21.4774 7.81797 21.4775 8.52138 21.4775 9.2248C22.978 9.22495 24.4785 9.22495 25.979 9.22495C26.4004 9.22641 26.8235 9.21362 27.2427 9.26494C28.0531 9.3578 28.8486 9.6365 29.5074 10.1133C30.0132 10.4766 30.4339 10.955 30.7174 11.5037C31.1091 12.2463 31.2419 13.1061 31.1498 13.9336C31.0719 14.6541 30.8028 15.3574 30.3564 15.937C29.9895 16.419 29.5062 16.8118 28.9634 17.0905C28.2562 17.4546 27.4553 17.6257 26.6593 17.6356C23.9537 17.6354 21.248 17.6356 18.5424 17.6355C18.5424 13.266 18.5423 8.89662 18.5424 4.52703ZM21.4775 11.79C21.4775 12.8758 21.4775 13.9621 21.4775 15.048C22.8985 15.048 24.3192 15.048 25.7401 15.048C26.1252 15.0455 26.5157 15.0667 26.8945 14.9832C27.2246 14.9142 27.5497 14.7739 27.7852 14.5314C28.0207 14.2949 28.1463 13.9705 28.1778 13.6451C28.2139 13.2797 28.1629 12.8948 27.9707 12.5745C27.8228 12.3229 27.5894 12.1247 27.3219 12.0024C26.9566 11.8316 26.5445 11.7835 26.1434 11.79C24.5881 11.79 23.0328 11.79 21.4775 11.79ZM69.6218 4.52718C70.8757 4.52718 72.13 4.52612 73.3839 4.52774C75.293 8.89734 77.2036 13.2663 79.1138 17.6354C78.0366 17.6356 76.9594 17.6356 75.8825 17.6354C74.4012 14.1492 72.9184 10.664 71.4379 7.17773C71.1495 7.83735 70.873 8.50227 70.59 9.16411C69.3891 11.988 68.1901 14.8125 66.988 17.6361C65.9561 17.6348 64.9242 17.6361 63.8922 17.6355C65.8009 13.2656 67.7119 8.89662 69.6218 4.52718ZM101.889 4.52718C106.136 4.52687 110.384 4.52687 114.631 4.52718C114.631 5.43313 114.631 6.33908 114.631 7.24474C112.996 7.24534 111.36 7.24459 109.725 7.24534C109.725 10.7087 109.725 14.172 109.725 17.6356C108.747 17.6355 107.769 17.6356 106.79 17.6355C106.79 14.172 106.79 10.7085 106.79 7.24519C105.156 7.24474 103.523 7.24534 101.889 7.24474C101.889 6.33893 101.889 5.43313 101.889 4.52718ZM121.181 4.52718C125.019 4.52657 128.857 4.52703 132.695 4.52703C132.696 5.38185 132.695 6.23663 132.696 7.0913C129.836 7.09292 126.976 7.09145 124.116 7.09205C124.115 7.80295 124.115 8.51405 124.116 9.22495C125.649 9.22495 127.184 9.22495 128.717 9.22495C129.11 9.22438 129.504 9.21893 129.894 9.2695C130.64 9.35871 131.372 9.60384 131.994 10.0198C132.592 10.4147 133.081 10.9687 133.386 11.6092C133.746 12.3555 133.856 13.2053 133.75 14.0209C133.662 14.7151 133.396 15.3904 132.965 15.9501C132.539 16.5082 131.956 16.9437 131.307 17.2222C130.593 17.5304 129.807 17.6528 129.03 17.6355C126.414 17.6356 123.797 17.6354 121.181 17.6356C121.18 13.2662 121.181 8.89662 121.181 4.52718ZM124.116 11.79C124.115 12.885 124.115 13.9799 124.116 15.0747C125.693 15.0752 127.27 15.0746 128.847 15.0752C129.081 15.0711 129.315 15.0525 129.543 14.9983C129.827 14.9322 130.102 14.8109 130.319 14.6174C130.576 14.3913 130.73 14.068 130.777 13.7355C130.83 13.3591 130.792 12.959 130.608 12.6198C130.463 12.3516 130.223 12.1374 129.944 12.0079C129.582 11.8349 129.172 11.7848 128.773 11.79C127.22 11.79 125.668 11.79 124.116 11.79ZM154.301 4.52703C155.28 4.52703 156.258 4.52687 157.237 4.52718C157.237 6.25943 157.237 7.99199 157.237 9.72424C159.518 9.72451 161.799 9.72451 164.08 9.72424C164.08 7.99199 164.08 6.25943 164.08 4.52718C165.058 4.52687 166.037 4.52703 167.015 4.52703C167.015 8.89662 167.015 13.266 167.015 17.6355C166.037 17.6356 165.058 17.6355 164.08 17.6355C164.08 15.9046 164.08 14.1736 164.08 12.4424C161.799 12.4424 159.518 12.4424 157.237 12.4424C157.237 14.1736 157.237 15.9044 157.237 17.6355C156.258 17.6355 155.28 17.6356 154.301 17.6355C154.301 13.266 154.301 8.89662 154.301 4.52703ZM171.112 4.52703C172.09 4.52703 173.069 4.52687 174.047 4.52718C174.047 6.52736 174.047 8.52755 174.047 10.5276C176.115 8.52842 178.183 6.52883 180.249 4.52744C181.585 4.52571 182.922 4.52819 184.257 4.52627C181.95 6.67125 179.635 8.80899 177.327 10.9536C179.218 12.6861 181.105 14.4238 182.995 16.1581C183.53 16.6511 184.067 17.1421 184.602 17.6358C183.52 17.6351 182.437 17.6358 181.355 17.6355C181.002 17.633 180.649 17.6408 180.298 17.6317C178.215 15.623 176.128 13.6176 174.047 11.6079C174.047 13.6172 174.047 15.6263 174.047 17.6356C173.069 17.6355 172.09 17.6356 171.112 17.6355C171.112 13.266 171.112 8.89662 171.112 4.52703Z" fill="black"/>
</svg>
