<svg width="125" height="94" viewBox="0 0 125 94" fill="none" xmlns="http://www.w3.org/2000/svg">
<path d="M32.043 25.3374C31.5931 25.3374 31.3181 25.6114 31.3181 26.1097V30.0212H25.2944V26.1097C25.2944 25.6114 25.0195 25.3374 24.5696 25.3374C24.1197 25.3374 23.8448 25.6114 23.8448 26.1097V35.5521C23.8448 36.0503 24.1197 36.3244 24.5696 36.3244C25.0195 36.3244 25.2944 36.0503 25.2944 35.5521V31.3665H31.3181V35.5521C31.3181 36.0503 31.5931 36.3244 32.043 36.3244C32.4929 36.3244 32.7678 36.0503 32.7678 35.5521V26.1097C32.7428 25.6114 32.4929 25.3374 32.043 25.3374ZM39.4663 30.6939L43.6404 26.5083C43.8404 26.309 43.9154 26.1595 43.9154 25.9353C43.9154 25.6114 43.6904 25.3374 43.2905 25.3374C43.0905 25.3374 42.9156 25.4121 42.7406 25.5865L38.6415 29.6724C38.4166 29.8966 38.1916 30.0212 37.8667 30.0212H37.0169V26.1097C37.0169 25.6114 36.7419 25.3374 36.292 25.3374C35.8421 25.3374 35.5672 25.6114 35.5672 26.1097V35.5521C35.5672 36.0503 35.8421 36.3244 36.292 36.3244C36.7419 36.3244 37.0169 36.0503 37.0169 35.5521V31.3665H37.7667C38.0916 31.3665 38.3166 31.4911 38.5415 31.7153L42.8906 36.0503C43.0905 36.2497 43.2405 36.2995 43.4654 36.2995C43.8654 36.2995 44.1153 36.0005 44.1153 35.6517C44.1153 35.4275 44.0153 35.2531 43.8154 35.0289L39.4663 30.6939ZM48.4893 12.3324C47.8395 12.6812 46.9397 12.9054 46.0899 12.9054C44.6902 12.9054 43.8154 12.3074 43.8154 11.2361C43.8154 10.2894 44.5652 9.54201 46.0899 9.54201C46.8897 9.54201 47.6145 9.66658 48.4893 9.91571V12.3324ZM46.2898 3.56268C45.0651 3.56268 43.9653 3.86165 43.2655 4.16061C42.6656 4.40975 42.4157 4.73363 42.4157 5.20699C42.4157 5.7551 42.8406 6.15372 43.3405 6.15372C43.5904 6.15372 43.8654 6.05406 44.1403 5.95441C44.5902 5.78001 45.365 5.5807 46.1149 5.5807C47.7895 5.5807 48.4893 6.20355 48.4893 7.49907V8.37105C47.5146 8.12191 46.7397 7.99734 45.8149 7.99734C43.0655 7.99734 41.7158 9.56692 41.7158 11.286C41.7158 13.2791 43.2155 14.7739 45.8899 14.7739C47.9645 14.7739 49.5391 14.0763 50.189 13.6528C50.4889 13.4535 50.5889 13.2542 50.5889 12.8306V7.52398C50.6139 4.80837 49.0392 3.56268 46.2898 3.56268ZM72.659 10.6133C72.1591 10.6133 71.8842 10.9123 71.7092 11.2361C71.3343 12.0583 70.5345 12.6313 69.4347 12.6313C67.8851 12.6313 66.9603 11.7095 66.8353 10.3143C66.7603 9.56692 66.7603 8.71985 66.8353 7.99734C66.9603 6.62708 67.8851 5.68036 69.4347 5.68036C70.5345 5.68036 71.3343 6.25338 71.7092 7.07553C71.9092 7.39941 72.1841 7.69838 72.659 7.69838C73.2839 7.69838 73.7338 7.29976 73.7338 6.70183C73.7338 6.37794 73.6088 6.05406 73.4089 5.70527C72.759 4.53432 71.3843 3.56268 69.3848 3.56268C66.6853 3.56268 64.8857 5.25682 64.6608 7.67347C64.5858 8.47071 64.5858 9.81606 64.6608 10.6133C64.8857 13.0299 66.6853 14.7241 69.3848 14.7241C71.3843 14.7241 72.759 13.7774 73.4089 12.5815C73.6088 12.2327 73.7088 11.9088 73.7088 11.5849C73.7088 11.0119 73.2839 10.5884 72.659 10.6133ZM23.5698 12.7808L19.7957 9.01881L23.3699 5.45613C23.6448 5.18208 23.7948 4.90803 23.7948 4.58415C23.7948 4.06096 23.4199 3.66234 22.87 3.66234C22.545 3.66234 22.3201 3.7869 22.0202 4.08587L18.396 7.69838C18.196 7.89769 17.996 7.99734 17.6961 7.99734H16.9463V4.78346C16.9463 4.06096 16.5214 3.63742 15.8465 3.63742C15.1717 3.63742 14.7468 4.06096 14.7468 4.78346V13.4535C14.7468 14.176 15.1717 14.5995 15.8465 14.5995C16.5214 14.5995 16.9463 14.176 16.9463 13.4535V9.99045H17.5711C17.8461 9.99045 18.071 10.115 18.271 10.2894L22.1451 14.1511C22.4701 14.4749 22.72 14.5995 23.0449 14.5995C23.6198 14.5995 24.0197 14.2009 24.0197 13.6279C23.9947 13.3538 23.8448 13.0549 23.5698 12.7808ZM60.3617 10.3143C60.2368 11.6846 59.362 12.6313 57.7873 12.6313C56.9625 12.6313 55.9377 12.3822 55.4378 12.0334V6.27829C55.9377 5.9295 56.9625 5.65544 57.7873 5.65544C59.362 5.65544 60.2368 6.60217 60.3617 7.97243C60.4117 8.69493 60.4367 9.56692 60.3617 10.3143ZM57.8623 3.56268C55.9627 3.56268 54.413 4.23535 53.8132 4.60906C53.3133 4.90803 53.2633 5.13225 53.2633 5.97932V17.0909C53.2633 17.8134 53.6882 18.2369 54.3631 18.2369C55.0379 18.2369 55.4628 17.8134 55.4628 17.0909V14.2009C56.1127 14.5248 57.1125 14.749 58.0622 14.749C60.5867 14.749 62.3113 13.0798 62.5613 10.6631C62.6362 9.84097 62.6362 8.49562 62.5613 7.67347C62.3113 5.23191 60.5617 3.56268 57.8623 3.56268ZM19.7707 34.3313C18.9708 34.7548 17.8711 35.0787 16.8713 35.0787C15.0717 35.0787 14.0469 34.3064 14.0469 33.0109C14.0469 31.8399 14.9467 30.943 16.8713 30.943C17.8211 30.943 18.6209 31.0925 19.7707 31.4164V34.3313ZM17.1962 25.2377C15.9465 25.2377 14.7218 25.5865 14.0469 25.8855C13.597 26.0848 13.3971 26.2841 13.3971 26.6329C13.3971 27.0066 13.697 27.2807 14.0469 27.2807C14.2219 27.2807 14.4218 27.2059 14.6218 27.1063C15.1217 26.882 16.0965 26.608 17.0463 26.608C18.9208 26.608 19.7707 27.3554 19.7707 29.0496V30.0461C18.5959 29.6973 17.7461 29.5977 16.7463 29.5977C14.0219 29.5977 12.6222 31.1672 12.6222 32.9361C12.6222 35.004 14.1969 36.3742 16.6713 36.3742C18.7209 36.3742 20.2955 35.6517 20.8704 35.2282C21.0954 35.0538 21.1704 34.9292 21.1704 34.6053V28.9997C21.1953 26.4585 19.6957 25.2377 17.1962 25.2377ZM6.67354 34.8047H2.59943V29.0246H6.67354C8.82306 29.0246 9.69787 30.071 9.69787 31.8648C9.67288 33.7334 8.79807 34.8047 6.67354 34.8047ZM6.8485 27.6544H2.57443V23.1948H9.69787C10.1728 23.1948 10.4977 22.9207 10.4977 22.4723C10.4977 22.0488 10.1728 21.7747 9.69787 21.7747H2.39947C1.57466 21.7747 1.12475 22.2232 1.12475 23.0453V34.9292C1.12475 35.7514 1.59965 36.1998 2.39947 36.1998H6.8485C9.5729 36.1998 11.1725 34.6053 11.1725 31.8399C11.1725 29.1741 9.5729 27.6544 6.8485 27.6544ZM31.943 7.69838H35.5172C37.2168 7.69838 37.9667 8.57037 37.9667 10.0403C37.9667 11.56 37.2168 12.4569 35.5172 12.4569H31.943V7.69838ZM31.3931 14.5497H35.7671C38.5915 14.5497 40.2662 12.9054 40.2662 9.99045C40.2662 7.24993 38.5915 5.70527 35.7671 5.70527H31.943V2.19242H38.3416C39.0414 2.19242 39.4913 1.76888 39.4913 1.12112C39.4913 0.498277 39.0414 0.0747423 38.3416 0.0747423H31.3931C30.2933 0.0747423 29.6935 0.672672 29.6935 1.76888V12.8306C29.6935 13.9518 30.2933 14.5497 31.3931 14.5497ZM4.24907 8.02226L6.24863 2.3419C6.32361 2.14259 6.3986 2.06785 6.54856 2.06785C6.69853 2.06785 6.77351 2.14259 6.8235 2.3419L8.82306 8.02226H4.24907ZM13.0721 13.603C13.0721 13.4037 13.0471 13.2043 12.9222 12.9054L8.87305 1.91837C8.39815 0.573018 7.67332 0 6.54856 0C5.42381 0 4.69897 0.573018 4.22407 1.91837L0.149969 12.9054C0.024996 13.2542 0 13.4535 0 13.603C0 14.176 0.449903 14.6493 1.09976 14.6493C1.62465 14.6493 1.99956 14.4002 2.22451 13.7524L3.54922 10.0154H9.5479L10.8726 13.7524C11.0726 14.3753 11.4725 14.6244 11.9724 14.6244C12.6222 14.6493 13.0721 14.176 13.0721 13.603Z" fill="#170030"/>
<path d="M124.274 71.1541C122.499 66.6696 118.075 64.2031 113.301 65.0751L103.503 66.8191C101.878 67.1181 100.804 68.6627 101.079 70.2821C101.379 71.9015 102.928 72.9728 104.553 72.6988L114.351 70.9548C116.675 70.5313 118.125 71.9264 118.7 73.3714C119.275 74.8164 119.175 76.8096 117.175 78.0802L102.778 87.373C101.454 88.245 99.804 88.2948 98.4293 87.5474C97.0296 86.8 96.2047 85.4048 96.2047 83.8103V53.6646C96.2047 52.0203 94.88 50.6749 93.2054 50.6749C91.5558 50.6749 90.2061 52.0203 90.2061 53.6646V83.7605C90.2061 87.5723 92.2056 90.9108 95.5549 92.7295C97.1045 93.5766 98.7792 94.0001 100.454 94.0001C102.378 94.0001 104.303 93.452 106.028 92.3309L120.424 83.038C124.499 80.4221 126.048 75.6386 124.274 71.1541ZM73.6597 65.0502L63.8619 66.7942C62.2372 67.0932 61.1624 68.6378 61.4374 70.2572C61.7373 71.8766 63.287 72.9479 64.9116 72.6739L74.7095 70.9299C77.034 70.5063 78.4836 71.9015 79.0585 73.3465C79.6334 74.7915 79.5334 76.7846 77.5339 78.0552L63.137 87.3481C61.8123 88.2201 60.1627 88.2699 58.788 87.5225C57.3883 86.7751 56.5635 85.3799 56.5635 83.7854V60.9145C56.5635 57.1027 54.5639 53.7642 51.2146 51.9455C47.8654 50.1268 43.9412 50.2763 40.7419 52.3442L4.57488 75.7133C0.500779 78.3542 -1.02389 83.1377 0.750723 87.6222C2.52533 92.1067 6.94936 94.5731 11.7233 93.7012L43.3164 88.0457C44.941 87.7467 46.0158 86.2021 45.7408 84.5827C45.4409 82.9633 43.8912 81.892 42.2666 82.166L10.6735 87.8215C8.34906 88.245 6.89937 86.8498 6.3245 85.4048C5.74963 83.9598 5.8496 81.9667 7.84917 80.6961L44.0162 57.3269C45.3409 56.4549 46.9906 56.4051 48.3653 57.1525C49.7649 57.8999 50.5898 59.2951 50.5898 60.8896V83.7605C50.5898 87.5723 52.5893 90.9108 55.9386 92.7295C57.4883 93.5766 59.1629 94.0001 60.8375 94.0001C62.7621 94.0001 64.6867 93.452 66.3863 92.3309L80.7831 83.038C84.8572 80.3972 86.3819 75.6137 84.6073 71.1292C82.8577 66.6447 78.4337 64.2031 73.6597 65.0502Z" fill="black"/>
</svg>
