<svg width="171" height="58" viewBox="0 0 171 58" fill="none" xmlns="http://www.w3.org/2000/svg">
<path d="M104.673 9.16347C104.586 9.17425 104.564 9.04488 104.64 9.02332C104.915 8.95864 105.194 8.89395 105.476 8.82927C108.015 8.21477 110.586 7.71886 113.168 7.26607C115.773 6.81328 118.398 6.48986 121.024 6.24191C123.747 5.98317 126.482 5.83224 129.216 5.7999C134.598 5.73522 140.012 6.11254 145.264 7.29841C148.28 7.9776 151.264 8.9263 153.965 10.4356C158.034 12.7103 161.279 16.8824 160.855 21.7122C160.627 24.2995 159.347 26.7683 157.817 28.8274C153.553 34.5735 147.26 38.8966 141.325 42.7668C141.249 42.8099 141.173 42.7021 141.238 42.6482C148.692 37.0099 152.685 30.6386 151.589 24.6445C149.495 13.12 129.357 6.84563 104.673 9.16347ZM129.509 2.87834C129.422 2.87834 129.411 2.75975 129.487 2.73819C131.386 2.36087 133.307 2.01589 135.216 1.71403C138.265 1.2289 141.325 0.819232 144.396 0.528154C149.68 0.021463 155.181 -0.280396 160.476 0.46347C161.669 0.635961 162.841 0.873136 164.002 1.19656C166.888 2.00511 169.85 3.54674 170.642 6.63001C171.163 8.646 170.848 10.8021 170.219 12.7534C168.993 16.5482 166.595 19.9334 164.067 22.9735C163.908 23.1604 163.749 23.3472 163.59 23.5341C163.546 23.588 163.449 23.5341 163.47 23.4694C164.523 20.7203 164.978 17.594 164.447 14.6832C163.644 10.3925 160.204 7.24451 156.342 5.55195C151.643 3.49284 146.479 2.98615 141.401 2.78131C137.44 2.6196 133.469 2.69507 129.509 2.87834Z" fill="black"/>
<path d="M71.3725 42.8531L76.7543 49.9036H57.3432L51.2019 57.9676H42.2939L69.5822 22.165L96.8706 57.9676H87.9626L69.5822 33.8512L62.7249 42.8531H71.3725ZM107.851 35.2635H114.947V57.9676H107.851V35.2635ZM90.1543 24.181H132.655V31.2423H90.1543V24.181ZM39.9719 47.7583C39.9719 53.3858 35.3605 57.9676 29.6967 57.9676H0.0429688V48.6207H7.14989V50.9062H29.6967C31.4545 50.9062 32.865 49.494 32.865 47.7583C32.865 46.0118 31.4545 44.5996 29.6967 44.5996H0.0429688V37.549L23.881 37.5382C25.6279 37.5382 27.0493 36.1367 27.0493 34.3903C27.0493 32.6546 25.6279 31.2423 23.881 31.2423H7.14989V33.5278H0.0429688V24.181H23.881C29.5448 24.181 34.1453 28.7627 34.1453 34.3903C34.1453 35.7486 33.8849 37.0423 33.3966 38.2282C37.2376 39.7051 39.9719 43.4245 39.9719 47.7583Z" fill="black"/>
</svg>
