<svg width="107" height="61" viewBox="0 0 107 61" fill="none" xmlns="http://www.w3.org/2000/svg">
<path d="M27.3873 18.1981C26.9177 15.6556 25.737 13.2174 23.8905 11.3934C22.0457 9.52896 19.5837 8.35446 17.0227 7.90014C14.1779 7.40564 11.255 7.63237 8.51975 8.55974C8.51975 5.70819 8.51975 2.85551 8.51975 0.00170898H0C0 7.49967 0 14.9982 0 22.4973C0.0415047 23.6411 0.210263 24.7766 0.503135 25.8828C1.16545 28.461 2.63514 30.7577 4.69592 32.4351C6.77555 34.1178 9.39185 35.0567 12.035 35.2956C14.2599 35.521 16.5072 35.2856 18.6378 34.604C20.9821 33.8631 23.0646 32.4612 24.6368 30.5657C26.0158 28.8455 26.9435 26.8064 27.3353 24.6343C27.7498 22.5106 27.7674 20.3282 27.3873 18.1981ZM19.1476 21.7199C19.1309 23.5573 18.8021 25.4453 17.863 27.0472C17.2156 28.1493 16.1758 29.0664 14.9079 29.3474C14.3018 29.4829 13.6749 29.4962 13.0636 29.3864C12.4524 29.2766 11.869 29.046 11.3474 28.708C10.2589 27.9794 9.54782 26.8066 9.12687 25.585C8.50801 23.8283 8.43254 21.9319 8.56671 20.0894C8.73442 18.4067 9.16712 16.6803 10.2086 15.314C10.9041 14.4077 11.9092 13.7915 13.0303 13.584C14.1514 13.3765 15.3094 13.5923 16.2814 14.1899C17.2424 14.8159 17.9082 15.8087 18.3359 16.8587C18.9631 18.3932 19.1745 20.0675 19.1476 21.7199Z" fill="black"/>
<path d="M55.4863 0.0016545C58.229 0.0016545 60.9711 0.0016545 63.7126 0.0016545C63.7126 6.36213 63.7126 12.7243 63.721 19.0848C63.8603 18.9744 63.9746 18.8356 64.0564 18.6776C66.3406 15.1978 68.6416 11.7298 70.9191 8.24503C74.4864 8.23157 78.0536 8.24503 81.6225 8.24503C78.1565 12.3956 74.6859 16.5462 71.211 20.6968C71.1372 20.7691 71.0885 20.8768 71.1875 20.9508C75.0449 25.5479 78.9257 30.1231 82.7764 34.7235C79.2863 34.7235 75.7962 34.7235 72.3044 34.7235C72.2595 34.7312 72.2132 34.7253 72.1717 34.7064C72.1301 34.6875 72.0952 34.6565 72.0713 34.6175C69.2856 30.5589 66.5167 26.4919 63.7193 22.4434C63.6992 26.5289 63.7294 30.6161 63.7042 34.6999C62.5537 34.7521 61.3881 34.6999 60.2309 34.7235H55.4897C55.4897 23.1478 55.4897 11.5728 55.4897 -0.00170898L55.4863 0.0016545Z" fill="black"/>
<path d="M53.7604 24.1613C54.2937 20.8515 54.0707 17.3499 52.7541 14.2454C52.188 12.9037 51.3672 11.6853 50.3374 10.6579C49.2266 9.56665 47.8787 8.74876 46.3995 8.26857C44.6143 7.714 42.7368 7.52237 40.8768 7.70487C38.6155 7.86235 36.4367 8.62083 34.5641 9.90243C32.5734 11.2805 31.064 13.2896 30.1231 15.5141C29.2745 17.5331 28.8487 19.7055 28.872 21.8965C28.8636 24.1109 29.2577 26.3505 30.2003 28.3613C30.873 29.8076 31.8449 31.0936 33.0514 32.1338C34.1637 33.0798 35.4369 33.8168 36.8098 34.3095C38.7016 35.0162 40.7259 35.2804 42.735 35.3191C46.0708 35.3191 49.4603 34.9388 52.5797 33.6903C52.2275 31.8259 51.8552 29.9649 51.498 28.1005C48.8316 28.9346 46.0396 29.2912 43.2499 29.1538C41.4772 29.0074 39.6341 28.5329 38.2789 27.3163C37.3702 26.5061 36.808 25.3754 36.7092 24.1597C42.3935 24.1518 48.0772 24.1524 53.7604 24.1613ZM36.6706 18.4958C36.8282 16.9225 37.4655 15.3374 38.6563 14.269C39.5459 13.4872 40.7036 13.083 41.8847 13.1416C43.0587 13.1416 44.2696 13.5908 45.0562 14.4877C46.0138 15.5747 46.3861 17.0689 46.3979 18.4924L36.6706 18.4958Z" fill="black"/>
<path d="M106.91 19.4886C106.723 17.436 106.08 15.4516 105.027 13.6817C103.581 11.3025 101.367 9.49146 98.7527 8.54958C96.6563 7.76883 94.3922 7.53999 92.1633 7.68638C91.2599 7.75185 90.3628 7.88686 89.48 8.09022C87.1052 8.64213 84.8394 9.79813 83.127 11.5565C81.2269 13.4478 80.0546 15.992 79.6051 18.6237C79.0533 21.8208 79.315 25.2366 80.7154 28.1947C81.6624 30.1929 83.1368 31.8928 84.9786 33.1098C86.9152 34.361 89.1283 35.1162 91.4237 35.309C93.6276 35.5266 95.8525 35.2942 97.9645 34.6259C100.762 33.7391 103.281 31.9067 104.852 29.4096C106.694 26.4851 107.239 22.8893 106.91 19.4886ZM98.4056 23.1905C98.2194 24.7217 97.8001 26.2697 96.8861 27.5317C96.2257 28.4879 95.223 29.1516 94.087 29.3844C93.0512 29.57 91.9834 29.4067 91.0497 28.9199C90.0686 28.3865 89.3341 27.4829 88.851 26.4902C88.2993 25.2864 87.9762 23.9898 87.8984 22.6672C87.8062 21.0703 87.8733 19.4465 88.316 17.9002C88.6515 16.7223 89.2016 15.5545 90.1122 14.7031C90.8667 14.0187 91.8248 13.6027 92.8385 13.5194C93.8522 13.4361 94.8651 13.69 95.7205 14.242C96.7268 14.9303 97.3859 16.0189 97.8018 17.148C98.4861 19.073 98.6152 21.1628 98.4056 23.1837V23.1905Z" fill="black"/>
<path d="M24.4093 49.255C50.8597 45.5206 77.3095 41.793 103.759 38.072C103.779 40.8518 103.772 43.6248 103.759 46.4113C96.2117 47.4546 88.6646 48.5332 81.1294 49.5899C54.0887 53.3882 27.0457 57.1916 0.000566059 61C0.000566059 58.227 -0.00949664 55.4472 0.000566059 52.6809C8.13793 51.5586 16.2686 50.3925 24.4026 49.255H24.4093Z" fill="black"/>
</svg>
