<svg width="164" height="67" viewBox="0 0 164 67" fill="none" xmlns="http://www.w3.org/2000/svg">
<path d="M81.9999 0.000244141C91.2384 0.000244141 99.6025 3.74996 105.657 9.81226C108.266 12.4252 110.446 15.4681 112.083 18.8254H109.242C107.806 16.1586 105.991 13.7264 103.87 11.6018C103.535 11.267 103.193 10.9399 102.844 10.6208C100.851 12.2118 98.6959 13.5592 96.4258 14.6463C97.048 15.9876 97.6059 17.383 98.0941 18.8254H95.4231C95.0282 17.7343 94.5906 16.674 94.113 15.6482C93.9536 15.7102 93.7936 15.7711 93.6332 15.8307C90.308 17.0656 86.8078 17.7632 83.2638 17.8973V32.2347H115.432C115.448 32.6547 115.456 33.0765 115.456 33.5002C115.456 33.924 115.448 34.3458 115.432 34.7657H83.2638V49.1032C86.8079 49.2375 90.2874 49.9354 93.578 51.1511C93.7567 51.2171 93.9348 51.2846 94.1124 51.3537C94.5902 50.3275 95.0281 49.2667 95.4232 48.1749H98.0941C97.6058 49.6179 97.0476 51.0137 96.4253 52.3556C98.6962 53.4428 100.851 54.7897 102.844 56.3797C103.193 56.0605 103.535 55.7334 103.87 55.3987C105.991 53.274 107.806 50.8418 109.242 48.1749H112.083C110.446 51.5322 108.266 54.5752 105.657 57.1882C99.6025 63.2505 91.2384 67.0002 81.9999 67.0002C72.7614 67.0002 64.3973 63.2505 58.3431 57.1882C55.7334 54.5752 53.5534 51.5322 51.917 48.1749H54.7579C56.1937 50.8418 58.0084 53.274 60.1302 55.3987C60.4647 55.7337 60.8069 56.0609 61.1564 56.3803C63.1372 54.8004 65.2907 53.4509 67.5757 52.3577C66.9529 51.0152 66.3944 49.6187 65.9057 48.1749H68.5766C68.9721 49.2677 69.4103 50.3293 69.8887 51.3564C70.0438 51.2961 70.1993 51.2369 70.3553 51.1789C73.6703 49.9464 77.1729 49.2388 80.736 49.1032V34.7657H48.5675C48.552 34.3458 48.5439 33.924 48.5439 33.5002C48.5439 33.0765 48.552 32.6547 48.5675 32.2347H80.736V17.8971C77.1696 17.7614 73.6642 17.0529 70.3469 15.8185C70.1938 15.7614 70.041 15.7033 69.8887 15.644C69.4104 16.671 68.9721 17.7327 68.5767 18.8254H65.9057C66.3944 17.3817 66.9529 15.9852 67.5757 14.6426C65.2907 13.5495 63.1371 12.2001 61.1563 10.6202C60.8069 10.9396 60.4647 11.2668 60.1302 11.6018C58.0084 13.7265 56.1938 16.1586 54.7579 18.8254H51.917C53.5535 15.4681 55.7334 12.4252 58.3431 9.81226C64.3973 3.74996 72.7614 0.000244141 81.9999 0.000244141ZM100.87 8.96179C97.1809 6.11319 92.8313 4.08005 88.0905 3.1321C89.4793 4.38209 90.7787 5.78179 91.9743 7.31306C93.1925 8.87357 94.3027 10.5714 95.2894 12.3863C97.2569 11.4496 99.1288 10.3037 100.87 8.96179H100.87ZM92.9615 13.3801C92.0711 11.7673 91.0763 10.257 89.9897 8.86523C88.0231 6.34632 85.7554 4.2182 83.2637 2.57867V15.3644C86.5279 15.2307 89.7291 14.5814 92.7544 13.4579C92.8235 13.4323 92.8926 13.4063 92.9615 13.3801ZM80.7361 2.57867C78.2445 4.2182 75.9767 6.34632 74.0101 8.86529C72.9226 10.2582 71.927 11.7699 71.0361 13.3841C71.0992 13.4081 71.1624 13.4319 71.2257 13.4554C74.2501 14.5808 77.4582 15.2313 80.7361 15.3646V2.57867ZM68.7085 12.3898C69.6956 10.5735 70.8065 8.87462 72.0255 7.31313C73.2211 5.78179 74.5205 4.38209 75.9094 3.1321C71.1682 4.08012 66.8182 6.11345 63.1287 8.96245C64.8623 10.2993 66.7327 11.4482 68.7084 12.3898H68.7085ZM100.87 58.0384C99.1284 56.6954 97.2567 55.5492 95.2903 54.6126C94.3034 56.4282 93.193 58.1264 91.9743 59.6873C90.7788 61.2186 89.4794 62.6183 88.0905 63.8683C92.8315 62.9202 97.1811 60.8871 100.871 58.0384H100.87ZM92.9623 53.6187C92.8781 53.5867 92.7936 53.555 92.7091 53.5238C89.6986 52.4117 86.513 51.7687 83.2637 51.6359V64.4217C85.7553 62.7822 88.0231 60.6541 89.9897 58.1351C91.0766 56.7429 92.0717 55.2321 92.9623 53.6187ZM80.7361 64.4217V51.6358C77.4611 51.769 74.2561 52.4182 71.2341 53.5418C71.1681 53.5663 71.1021 53.5912 71.0361 53.6163C71.9271 55.2305 72.9227 56.7422 74.0101 58.1351C75.9767 60.654 78.2444 62.7822 80.7361 64.4217ZM68.7085 54.6106C66.7327 55.5521 64.8623 56.701 63.1288 58.0379C66.8183 60.8869 71.1682 62.9202 75.9094 63.8683C74.5205 62.6183 73.2211 61.2186 72.0256 59.6872C70.8066 58.1257 69.6959 56.4268 68.7086 54.6106H68.7085ZM45.6545 23.1647H53.4049C54.2629 23.1647 54.9649 23.8417 54.9649 24.6691V29.49C54.9649 30.3173 54.2629 30.9943 53.4049 30.9943H45.6545C44.7966 30.9943 44.0946 30.3173 44.0946 29.49V24.6691C44.0946 23.8417 44.7966 23.1647 45.6545 23.1647ZM49.5297 24.1216C48.7978 24.1216 48.1991 24.6991 48.1991 25.4048V28.7542C48.1991 29.46 48.7979 30.0374 49.5297 30.0374C50.2616 30.0374 50.8603 29.4599 50.8603 28.7542V25.4048C50.8603 24.699 50.2615 24.1216 49.5297 24.1216ZM19.3809 26.941C18.7713 27.0398 18.3031 27.5543 18.3031 28.169V28.7922C18.3031 29.4771 18.8842 30.0374 19.5943 30.0374H19.5944C20.3045 30.0374 20.8855 29.477 20.8855 28.7922V26.6871L19.3809 26.941ZM20.8855 30.7031C20.7403 30.8803 20.5158 30.9943 20.2649 30.9943H16.1788C14.9037 30.9943 13.8604 29.9882 13.8604 28.7585V28.7585C13.8604 27.6624 14.6893 26.7439 15.7725 26.5573L20.0446 25.8294C20.558 25.742 20.8855 25.4342 20.8855 24.9593C20.8855 24.4985 20.4945 24.1216 20.0168 24.1216H17.7947C17.3169 24.1216 16.9259 24.4986 16.9259 24.9593V25.3428H14.3857V24.6691C14.3857 23.8416 15.0877 23.1647 15.9456 23.1647H23.43C24.288 23.1647 24.99 23.8416 24.99 24.6691V30.9942H20.8855V30.7031V30.7031ZM56.1024 20.1024H60.2068V30.9943H56.1024V20.1024ZM61.4348 23.1647H65.5392V30.9943H61.4348V23.1647ZM2.30501 20.1024H10.5987C11.8664 20.1024 12.9037 21.1027 12.9037 22.3253V24.1217H7.73646V22.555C7.73646 21.8736 7.15836 21.3162 6.45189 21.3162C5.74535 21.3162 5.16732 21.8737 5.16732 22.555V28.5419C5.16732 29.2232 5.74541 29.7806 6.45189 29.7806C7.15843 29.7806 7.73646 29.2231 7.73646 28.5419V26.5227H12.9037V28.7714C12.9037 29.9941 11.8665 30.9944 10.5987 30.9944H2.30501C1.03724 30.9944 0 29.9941 0 28.7714V22.3253C0 21.1027 1.03718 20.1024 2.30501 20.1024ZM38.2059 21.3161V23.1647H37.3422V24.1216H38.2059V29.49C38.2059 30.3173 38.9078 30.9943 39.7658 30.9943H42.9923V30.0374C42.6173 30.0374 42.3103 29.7415 42.3103 29.3798V24.1216H43.174V23.1647H42.3103V20.1024L38.2059 21.3161ZM62.5746 20.1024H64.3994C65.105 20.1024 65.6822 20.6591 65.6822 21.3395V21.3396C65.6822 22.02 65.1049 22.5765 64.3994 22.5765H62.5746C61.869 22.5765 61.2918 22.0199 61.2918 21.3396V21.3395C61.2918 20.6591 61.8691 20.1024 62.5746 20.1024ZM66.7571 23.1647H70.8616V23.6082C71.1444 23.3346 71.535 23.1647 71.9649 23.1647H76.0222C76.8801 23.1647 77.5822 23.8417 77.5822 24.6691V30.9943H73.4777V25.3832C73.4777 24.6892 72.8891 24.1217 72.1696 24.1217C71.4502 24.1217 70.8616 24.6893 70.8616 25.3832V30.9943H66.7571V23.1647ZM27.2744 27.0085L31.407 29.3556C31.511 29.4257 31.5728 29.5403 31.5728 29.6626C31.5728 29.8696 31.3988 30.0374 31.1842 30.0374H29.3069C28.8597 30.0374 28.4939 29.6846 28.4939 29.2535V28.8571H25.9537V29.49C25.9537 30.3174 26.6556 30.9944 27.5136 30.9944H35.0168C35.8748 30.9944 36.5768 30.3174 36.5768 29.49V29.0024C36.5768 27.9855 35.8603 27.4574 35.256 27.1505L31.1233 24.8036C31.0194 24.7334 30.9576 24.6188 30.9576 24.4965C30.9576 24.2895 31.1316 24.1217 31.3463 24.1217H33.2235C33.6707 24.1217 34.0365 24.4745 34.0365 24.9057V25.302H36.5768V24.6691C36.5768 23.8417 35.8748 23.1647 35.0168 23.1647H27.5136C26.6556 23.1647 25.9537 23.8417 25.9537 24.6691V25.1567C25.9537 26.1736 26.67 26.7017 27.2744 27.0085ZM132.072 39.3115H139.822C140.68 39.3115 141.382 39.9885 141.382 40.8159V45.6368C141.382 46.4641 140.68 47.1411 139.822 47.1411H132.072C131.214 47.1411 130.512 46.4641 130.512 45.6368V40.8159C130.512 39.9885 131.214 39.3115 132.072 39.3115ZM135.947 40.2684C135.215 40.2684 134.616 40.8459 134.616 41.5516V44.901C134.616 45.6068 135.215 46.1842 135.947 46.1842C136.679 46.1842 137.278 45.6067 137.278 44.901V41.5516C137.278 40.8458 136.679 40.2684 135.947 40.2684ZM105.798 43.0878C105.189 43.1866 104.72 43.701 104.72 44.3158V44.939C104.72 45.6239 105.302 46.1842 106.012 46.1842H106.012C106.722 46.1842 107.303 45.6238 107.303 44.939V42.8339L105.798 43.0878ZM107.303 46.8499C107.158 47.0271 106.933 47.1411 106.682 47.1411H102.596C101.321 47.1411 100.278 46.135 100.278 44.9053V44.9053C100.278 43.8092 101.107 42.8907 102.19 42.7041L106.462 41.9762C106.975 41.8888 107.303 41.581 107.303 41.1061C107.303 40.6453 106.912 40.2684 106.434 40.2684H104.212C103.734 40.2684 103.343 40.6454 103.343 41.1061V41.4896H100.803V40.8159C100.803 39.9884 101.505 39.3115 102.363 39.3115H109.847C110.705 39.3115 111.407 39.9884 111.407 40.8159V47.1411H107.303V46.8498V46.8499ZM142.52 36.2492H146.624V47.1411H142.52V36.2492ZM147.852 39.3115H151.957V47.1411H147.852V39.3115ZM88.7224 36.2492H97.0161C98.2838 36.2492 99.3211 37.2495 99.3211 38.4721V40.2685H94.1538V38.7018C94.1538 38.0204 93.5758 37.463 92.8693 37.463C92.1627 37.463 91.5847 38.0205 91.5847 38.7018V44.6887C91.5847 45.37 92.1628 45.9274 92.8693 45.9274C93.5758 45.9274 94.1538 45.3699 94.1538 44.6887V42.6695H99.3211V44.9182C99.3211 46.1409 98.2839 47.1412 97.0161 47.1412H88.7224C87.4546 47.1412 86.4174 46.1409 86.4174 44.9182V38.4721C86.4174 37.2495 87.4546 36.2492 88.7224 36.2492ZM124.623 37.4629V39.3115H123.76V40.2684H124.623V45.6368C124.623 46.4641 125.325 47.1411 126.183 47.1411H129.41V46.1842C129.035 46.1842 128.728 45.8883 128.728 45.5266V40.2684H129.591V39.3115H128.728V36.2492L124.623 37.4629ZM148.992 36.2492H150.817C151.522 36.2492 152.1 36.806 152.1 37.4863V37.4864C152.1 38.1668 151.522 38.7233 150.817 38.7233H148.992C148.286 38.7233 147.709 38.1667 147.709 37.4864V37.4863C147.709 36.8059 148.286 36.2492 148.992 36.2492ZM153.175 39.3115H157.279V39.755C157.562 39.4814 157.952 39.3115 158.382 39.3115H162.44C163.298 39.3115 164 39.9885 164 40.8159V47.1411H159.895V41.53C159.895 40.836 159.306 40.2685 158.587 40.2685C157.868 40.2685 157.279 40.8361 157.279 41.53V47.1411H153.175V39.3115ZM113.692 43.1553L117.824 45.5024C117.928 45.5725 117.99 45.6871 117.99 45.8094C117.99 46.0164 117.816 46.1842 117.602 46.1842H115.724C115.277 46.1842 114.911 45.8314 114.911 45.4003V45.0039H112.371V45.6368C112.371 46.4642 113.073 47.1412 113.931 47.1412H121.434C122.292 47.1412 122.994 46.4642 122.994 45.6368V45.1492C122.994 44.1323 122.278 43.6042 121.673 43.2973L117.541 40.9504C117.437 40.8802 117.375 40.7656 117.375 40.6433C117.375 40.4363 117.549 40.2685 117.764 40.2685H119.641C120.088 40.2685 120.454 40.6213 120.454 41.0525V41.4488H122.994V40.8159C122.994 39.9885 122.292 39.3115 121.434 39.3115H113.931C113.073 39.3115 112.371 39.9885 112.371 40.8159V41.3035C112.371 42.3204 113.087 42.8485 113.692 43.1553ZM61.4347 38.9362H65.5391V47.1412H61.4347V38.9362ZM55.25 36.9846V38.9362H54.3863V40.0574H55.25V45.6368C55.25 46.4641 55.952 47.1411 56.8099 47.1411H60.2183V46.1842H60.0364C59.6614 46.1842 59.3545 45.8883 59.3545 45.5266V40.0574H60.2182V38.9362H59.3545V35.7708L55.25 36.9846ZM24.7844 36.9846V38.9362H23.9207V40.0574H24.7844V45.6368C24.7844 46.4641 25.4864 47.1411 26.3443 47.1411H29.7526V46.1842H29.5708C29.1957 46.1842 28.8888 45.8883 28.8888 45.5266V40.0574H29.7525V38.9362H28.8888V35.7708L24.7844 36.9846ZM62.6866 35.7709H64.2875C65.0546 35.7709 65.6822 36.3761 65.6822 37.1159C65.6822 37.8557 65.0545 38.4608 64.2875 38.4608H62.6866C61.9193 38.4608 61.2918 37.8556 61.2918 37.1159C61.2918 36.3761 61.9194 35.7709 62.6866 35.7709ZM22.9651 47.1412H18.8607V46.6977C18.5778 46.9713 18.187 47.1412 17.7575 47.1412H13.5647C12.7068 47.1412 12.0048 46.4641 12.0048 45.6368V38.9362H16.1093V44.9227C16.1093 46.674 18.8607 46.4669 18.8607 44.9227V38.9362H22.9651V47.1412ZM32.2433 38.9362H40.0838C40.9418 38.9362 41.6438 39.6131 41.6438 40.4405V43.0053H34.7878V44.8117C34.7878 45.5413 35.4069 46.1384 36.1635 46.1384C36.9203 46.1384 37.5393 45.5413 37.5393 44.8117V44.0874H41.6438V45.6368C41.6438 46.4642 40.9418 47.1411 40.0837 47.1411H32.2432C31.3853 47.1411 30.6833 46.4642 30.6833 45.6368V40.4404C30.6833 39.613 31.3853 38.9361 32.2432 38.9361L32.2433 38.9362ZM37.5393 41.9232V41.2656C37.5393 40.5359 36.9202 39.9389 36.1636 39.9389C35.4069 39.9389 34.7879 40.536 34.7879 41.2656V41.9232H37.5393ZM44.241 38.9362H52.0816C52.9396 38.9362 53.6415 39.6131 53.6415 40.4405V41.9232H49.537V41.2656C49.537 40.5359 48.9179 39.9389 48.1614 39.9389H48.1613C47.4047 39.9389 46.7856 40.536 46.7856 41.2656V44.8117C46.7856 45.5413 47.4047 46.1384 48.1613 46.1384H48.1614C48.918 46.1384 49.537 45.5413 49.537 44.8117V44.154H53.6415V45.6368C53.6415 46.4642 52.9396 47.1411 52.0816 47.1411H44.241C43.3831 47.1411 42.6811 46.4642 42.6811 45.6368V40.4404C42.6811 39.613 43.3831 38.9361 44.241 38.9361V38.9362ZM68.1819 38.9362H76.0224C76.8803 38.9362 77.5824 39.6131 77.5824 40.4405V41.9232H73.4779V41.2656C73.4779 40.5359 72.8588 39.9389 72.1022 39.9389H72.1021C71.3455 39.9389 70.7265 40.536 70.7265 41.2656V44.8117C70.7265 45.5413 71.3456 46.1384 72.1021 46.1384H72.1022C72.8588 46.1384 73.4779 45.5413 73.4779 44.8117V44.154H77.5824V45.6368C77.5824 46.4642 76.8803 47.1411 76.0224 47.1411H68.1819C67.3239 47.1411 66.622 46.4642 66.622 45.6368V40.4404C66.622 39.613 67.3239 38.9361 68.1819 38.9361V38.9362ZM10.9914 40.5362V41.9232H5.16739V45.7541H10.9914V47.1412H0.000131205V35.7709H10.9914V37.158H5.16739V40.5362H10.9914ZM147.852 22.7894H151.957V30.9944H147.852V22.7894ZM141.668 20.8378V22.7894H140.804V23.9106H141.668V29.49C141.668 30.3173 142.37 30.9943 143.228 30.9943H146.636V30.0374H146.454C146.079 30.0374 145.772 29.7415 145.772 29.3798V23.9106H146.636V22.7894H145.772V19.624L141.668 20.8378ZM111.202 20.8378V22.7894H110.338V23.9106H111.202V29.49C111.202 30.3173 111.904 30.9943 112.762 30.9943H116.17V30.0374H115.988C115.613 30.0374 115.306 29.7415 115.306 29.3798V23.9106H116.17V22.7894H115.306V19.624L111.202 20.8378ZM149.104 19.6241H150.705C151.472 19.6241 152.1 20.2293 152.1 20.9691C152.1 21.7089 151.472 22.3141 150.705 22.3141H149.104C148.337 22.3141 147.709 21.7088 147.709 20.9691C147.709 20.2293 148.337 19.6241 149.104 19.6241ZM109.383 30.9944H105.278V30.5509C104.995 30.8245 104.605 30.9944 104.175 30.9944H99.9824C99.1245 30.9944 98.4224 30.3173 98.4224 29.49V22.7894H102.527V28.7759C102.527 30.5272 105.278 30.3202 105.278 28.7759V22.7894H109.383V30.9944ZM118.661 22.7894H126.501C127.359 22.7894 128.061 23.4663 128.061 24.2937V26.8585H121.205V28.6649C121.205 29.3945 121.825 29.9916 122.581 29.9916C123.338 29.9916 123.957 29.3945 123.957 28.6649V27.9406H128.061V29.49C128.061 30.3174 127.359 30.9943 126.501 30.9943H118.661C117.803 30.9943 117.101 30.3174 117.101 29.49V24.2937C117.101 23.4662 117.803 22.7893 118.661 22.7893L118.661 22.7894ZM123.957 25.7764V25.1188C123.957 24.3891 123.338 23.7921 122.581 23.7921C121.825 23.7921 121.206 24.3892 121.206 25.1188V25.7764H123.957ZM130.659 22.7894H138.499C139.357 22.7894 140.059 23.4663 140.059 24.2937V25.7764H135.955V25.1188C135.955 24.3891 135.336 23.7921 134.579 23.7921H134.579C133.822 23.7921 133.203 24.3892 133.203 25.1188V28.6649C133.203 29.3945 133.822 29.9916 134.579 29.9916H134.579C135.336 29.9916 135.955 29.3945 135.955 28.6649V28.0072H140.059V29.49C140.059 30.3174 139.357 30.9943 138.499 30.9943H130.659C129.801 30.9943 129.099 30.3174 129.099 29.49V24.2937C129.099 23.4662 129.801 22.7893 130.659 22.7893V22.7894ZM154.6 22.7894H162.44C163.298 22.7894 164 23.4663 164 24.2937V25.7764H159.896V25.1188C159.896 24.3891 159.276 23.7921 158.52 23.7921H158.52C157.763 23.7921 157.144 24.3892 157.144 25.1188V28.6649C157.144 29.3945 157.763 29.9916 158.52 29.9916H158.52C159.276 29.9916 159.896 29.3945 159.896 28.6649V28.0072H164V29.49C164 30.3174 163.298 30.9943 162.44 30.9943H154.6C153.742 30.9943 153.04 30.3174 153.04 29.49V24.2937C153.04 23.4662 153.742 22.7893 154.6 22.7893V22.7894ZM97.409 24.3894V25.7764H91.585V29.6073H97.409V30.9944H86.4178V19.6241H97.409V21.0112H91.585V24.3894H97.409Z" fill="black"/>
</svg>
