<svg width="113" height="27" viewBox="0 0 113 27" fill="none" xmlns="http://www.w3.org/2000/svg">
<path d="M0 26.5315V0.470958C0 0.409816 0.0120762 0.349275 0.0355304 0.292787C0.0589846 0.236299 0.0933642 0.18497 0.136702 0.141736C0.180039 0.0985022 0.231491 0.0642145 0.288115 0.0408165C0.344739 0.0174184 0.405425 0.00537109 0.466714 0.00537109H3.74306C3.80434 0.00537109 3.86503 0.0174184 3.92166 0.0408165C3.97828 0.0642145 4.02973 0.0985022 4.07307 0.141736C4.1164 0.18497 4.15079 0.236299 4.17425 0.292787C4.19769 0.349275 4.20976 0.409816 4.20976 0.470958V26.5315C4.20976 26.655 4.1606 26.7735 4.07307 26.8608C3.98554 26.9481 3.86683 26.9971 3.74306 26.9971H0.466714C0.405425 26.9971 0.344739 26.9851 0.288115 26.9616C0.231491 26.9382 0.180039 26.904 0.136702 26.8608C0.0933642 26.8175 0.0589846 26.7662 0.0355304 26.7096C0.0120762 26.6532 0 26.5926 0 26.5315Z" fill="black"/>
<path d="M78.3945 26.5315V0.470958C78.3945 0.409816 78.4067 0.349275 78.4301 0.292787C78.4535 0.236299 78.4879 0.18497 78.5313 0.141736C78.5746 0.0985022 78.626 0.0642145 78.6827 0.0408165C78.7392 0.0174184 78.8 0.00537109 78.8613 0.00537109H82.1377C82.1989 0.00537109 82.2595 0.0174184 82.3162 0.0408165C82.3728 0.0642145 82.4243 0.0985022 82.4676 0.141736C82.5109 0.18497 82.5454 0.236299 82.5688 0.292787C82.5922 0.349275 82.6044 0.409816 82.6044 0.470958V26.5315C82.6044 26.655 82.5551 26.7735 82.4676 26.8608C82.3801 26.9481 82.2614 26.9971 82.1377 26.9971H78.8613C78.8 26.9971 78.7392 26.9851 78.6827 26.9616C78.626 26.9382 78.5746 26.904 78.5313 26.8608C78.4879 26.8175 78.4535 26.7662 78.4301 26.7096C78.4067 26.6532 78.3945 26.5926 78.3945 26.5315Z" fill="black"/>
<path d="M99.7507 26.5315V4.2738C99.749 4.15141 99.6991 4.03459 99.6119 3.94862C99.5245 3.86265 99.4066 3.81446 99.2839 3.81446H91.1777C91.0539 3.81446 90.9352 3.76541 90.8477 3.67809C90.7602 3.59078 90.7109 3.47235 90.7109 3.34888V0.470958C90.7109 0.409816 90.7231 0.349275 90.7465 0.292787C90.7699 0.236299 90.8043 0.18497 90.8477 0.141736C90.891 0.0985022 90.9424 0.0642145 90.9991 0.0408165C91.0558 0.0174184 91.1164 0.00537109 91.1777 0.00537109H112.533C112.595 0.00537109 112.656 0.0174184 112.712 0.0408165C112.769 0.0642145 112.82 0.0985022 112.863 0.141736C112.907 0.18497 112.941 0.236299 112.965 0.292787C112.988 0.349275 113 0.409816 113 0.470958V3.34261C113.001 3.40429 112.99 3.46551 112.967 3.52272C112.943 3.57992 112.909 3.63199 112.866 3.67589C112.822 3.7198 112.771 3.75464 112.714 3.77844C112.656 3.80221 112.595 3.81447 112.533 3.81446H104.427C104.303 3.81446 104.185 3.86351 104.097 3.95083C104.01 4.03814 103.961 4.15656 103.961 4.28005V26.5315C103.961 26.5926 103.948 26.6532 103.925 26.7096C103.902 26.7662 103.867 26.8175 103.824 26.8608C103.78 26.904 103.729 26.9382 103.672 26.9616C103.616 26.9851 103.555 26.9971 103.494 26.9971H100.217C100.094 26.9971 99.9749 26.9481 99.8874 26.8608C99.7999 26.7735 99.7507 26.655 99.7507 26.5315Z" fill="black"/>
<path d="M12.3984 26.5315C12.3984 26.655 12.4476 26.7733 12.5351 26.8606C12.6227 26.948 12.7414 26.997 12.8651 26.997H22.9416C25.7116 27.0496 28.4519 26.4196 30.9195 25.1627C31.3079 24.9565 31.6775 24.7315 32.0408 24.494L32.3322 24.2972C32.4168 24.2441 32.5013 24.1878 32.5828 24.1285C33.8884 23.2268 35.008 22.0832 35.881 20.76C36.2146 20.2546 36.5058 19.7226 36.7518 19.1695C37.5202 17.3798 37.8991 15.4477 37.8638 13.5011C37.906 11.4101 37.4632 9.33757 36.5701 7.44535C36.3651 7.03078 36.135 6.62902 35.881 6.24232C35.0095 4.91877 33.8895 3.77598 32.5828 2.87695L32.3259 2.70197L32.0408 2.51135C31.6775 2.27386 31.3079 2.04889 30.9195 1.84266C28.4519 0.585816 25.7116 -0.0442155 22.9416 0.00841782H12.8651C12.7414 0.00841782 12.6227 0.0574679 12.5351 0.144783C12.4476 0.232097 12.3984 0.350522 12.3984 0.474005V26.5315ZM32.5264 17.6227C31.7543 19.3224 30.4886 20.7517 28.8929 21.7255C27.2892 22.7026 25.3055 23.1921 22.9416 23.1942H17.0749C17.0135 23.1946 16.9526 23.1829 16.8958 23.1595C16.839 23.1363 16.7873 23.102 16.744 23.0587C16.7006 23.0154 16.6662 22.964 16.6428 22.9073C16.6196 22.8506 16.6078 22.7899 16.6082 22.7286V4.27372C16.6078 4.21246 16.6196 4.15173 16.6428 4.09505C16.6662 4.03838 16.7006 3.98689 16.744 3.94357C16.7873 3.90026 16.839 3.86597 16.8958 3.84272C16.9526 3.81946 17.0135 3.80772 17.0749 3.80813H22.9416C25.3055 3.80813 27.2892 4.29768 28.8929 5.27677C30.4886 6.25057 31.7543 7.67989 32.5264 9.37958C32.5545 9.44208 32.5828 9.49832 32.6109 9.55144C32.6246 9.57389 32.6351 9.59807 32.6423 9.62332C33.438 12.0926 33.4567 14.7458 32.6955 17.2258L32.6767 17.2697C32.6297 17.3883 32.5797 17.5071 32.5264 17.6227Z" fill="black"/>
<path d="M47.1931 10.308C48.6997 10.308 49.9212 9.08942 49.9212 7.58629C49.9212 6.08315 48.6997 4.86462 47.1931 4.86462C45.6863 4.86462 44.4648 6.08315 44.4648 7.58629C44.4648 9.08942 45.6863 10.308 47.1931 10.308Z" fill="black"/>
<path d="M52.764 15.752H49.2276C49.1506 15.7521 49.075 15.7711 49.0072 15.8076C48.9395 15.844 48.8817 15.8965 48.8392 15.9606C48.7967 16.0246 48.7708 16.0981 48.7637 16.1745C48.7566 16.251 48.7686 16.328 48.7985 16.3988L53.2308 26.7105C53.2669 26.794 53.3267 26.8653 53.403 26.9152C53.4793 26.9653 53.5686 26.9919 53.6599 26.9917H59.5641C59.6553 26.9919 59.7446 26.9653 59.8209 26.9152C59.8972 26.8653 59.9571 26.794 59.9933 26.7105L71.1848 0.649947C71.2155 0.579074 71.2279 0.501717 71.2212 0.424831C71.2144 0.347945 71.1886 0.273945 71.1461 0.209488C71.1035 0.145031 71.0456 0.0921348 70.9774 0.0555672C70.9092 0.0189995 70.833 -9.1955e-05 70.7557 7.61578e-07H67.3478C67.2574 -0.000162984 67.1688 0.0260815 67.0932 0.0754975C67.0174 0.124913 66.9579 0.195337 66.9218 0.2781L57.0928 22.7764C57.0564 22.8589 56.9968 22.9292 56.9211 22.9785C56.8455 23.0279 56.7572 23.0543 56.6668 23.0546H56.5728C56.4824 23.0547 56.3938 23.0284 56.3182 22.979C56.2424 22.9296 56.1829 22.8592 56.1468 22.7764L53.1932 16.0114C53.1534 15.932 53.0921 15.8656 53.0162 15.8197C52.9402 15.7738 52.8528 15.7503 52.764 15.752Z" fill="black"/>
</svg>
