<svg width="81" height="107" viewBox="0 0 81 107" fill="none" xmlns="http://www.w3.org/2000/svg">
<path d="M1 49.6468H15.4683C36.4558 60.8247 64.5861 64.6543 46.4717 49.4366H60.9399C69.2006 54.5549 75.2015 59.9438 74.9948 63.0959C72.5694 74.8413 23.9286 65.8079 1 49.6468Z" fill="black"/>
<path fill-rule="evenodd" clip-rule="evenodd" d="M45.6385 49.4366H60.7661L60.8158 49.4667C64.9602 51.9746 68.5447 54.5528 71.0701 56.8952C72.3324 58.0661 73.3359 59.1833 74.0121 60.2083C74.6853 61.2288 75.0505 62.1827 74.9943 63.0196L74.9934 63.034L74.9904 63.0481C74.6699 64.5639 73.5873 65.7256 71.9423 66.5708C70.3001 67.4147 68.0789 67.9543 65.4319 68.2258C60.1359 68.7689 53.078 68.2441 45.3904 66.8677C30.0164 64.1151 12.0612 57.9449 0.544116 50.0168L0 49.6422H15.2069L15.252 49.6657C25.7473 55.1248 38.0196 58.7836 45.3867 59.2239C47.2282 59.334 48.747 59.2418 49.8495 58.9355C50.9564 58.6281 51.5919 58.1218 51.7733 57.4407C51.9582 56.7462 51.6984 55.7804 50.7828 54.4928C49.873 53.2131 48.3444 51.6567 46.0823 49.8007L45.6385 49.4366ZM46.7851 49.8478C48.8229 51.5568 50.2426 53.0201 51.1211 54.2556C52.0557 55.5701 52.4072 56.6688 52.1736 57.5458C51.9365 58.4363 51.1236 59.0086 49.9611 59.3315C48.7942 59.6557 47.2227 59.7456 45.3618 59.6344C37.9299 59.1901 25.6245 55.5174 15.105 50.0534H1.33093C12.8002 57.757 30.3686 63.7603 45.4639 66.463C53.1329 67.8361 60.1479 68.3543 65.3893 67.8168C68.011 67.5479 70.1746 67.0162 71.752 66.2057C73.321 65.3994 74.2914 64.3282 74.5821 62.9779C74.6243 62.2755 74.3156 61.4188 73.6656 60.4336C73.0143 59.4462 72.0365 58.3542 70.7874 57.1957C68.2999 54.8884 64.7595 52.3379 60.6499 49.8478H46.7851Z" fill="black"/>
<path d="M20.062 49.4366H34.7365C17.25 36.5166 38.9051 35.3596 65.7394 49.2269L80 49.2269C54.7293 32.4228 8.28158 24.4665 6.00757 35.5876C5.80084 38.7352 9.81016 42.7564 20.062 49.4366Z" fill="black"/>
<path fill-rule="evenodd" clip-rule="evenodd" d="M6.42015 35.7094C6.32985 37.15 7.22253 38.8424 9.46842 41.0133C11.7064 43.1766 15.2458 45.775 20.3486 49.026H34.3527C32.4171 47.5909 30.9912 46.3037 30.0283 45.169C28.9878 43.9428 28.4653 42.8682 28.4601 41.9597C28.4548 41.0254 28.9942 40.3206 29.9316 39.8507C30.8594 39.3857 32.1961 39.1375 33.8564 39.0953C40.49 38.9271 52.6454 42.0459 66.0762 48.8209L79.6065 48.8208C67.0193 40.8113 49.4134 34.9075 34.5891 32.3104C27.0609 30.9915 20.2644 30.5279 15.2158 31.0685C12.6905 31.3388 10.6167 31.859 9.10979 32.6387C7.61088 33.4143 6.69189 34.4353 6.42015 35.7094ZM34.6611 31.906C49.7555 34.5505 67.7377 40.6146 80.4197 48.8544L81 49.2314L65.9769 49.2315L65.9327 49.2091C52.5107 42.432 40.4083 39.3399 33.867 39.5058C32.2318 39.5473 30.9663 39.7921 30.1183 40.2172C29.2799 40.6375 28.8698 41.2198 28.874 41.9573C28.8784 42.7206 29.3247 43.7022 30.3449 44.9045C31.3604 46.1013 32.9222 47.4904 35.1038 49.0654L35.6181 49.4366H20.2271L20.1761 49.4041C15.0407 46.1345 11.4561 43.5079 9.17954 41.3074C6.91079 39.1144 5.8981 37.3038 6.00806 35.6679L6.00901 35.6538L6.01192 35.6399C6.3132 34.2003 7.34452 33.089 8.91836 32.2746C10.4897 31.4616 12.6208 30.9333 15.1714 30.6602C20.2745 30.1139 27.114 30.5838 34.6611 31.906Z" fill="black"/>
<path d="M77.9946 18.3595C76.4592 18.9116 74.6867 19.1876 72.6769 19.1876C70.7017 19.1876 68.9981 18.8124 67.5663 18.0619C66.1344 17.3029 65.039 16.229 64.2799 14.8403C63.5295 13.443 63.1543 11.8343 63.1543 10.0143C63.1543 8.05628 63.5769 6.31392 64.4223 4.78719C65.2676 3.26047 66.4622 2.08308 68.0062 1.25502C69.5502 0.41834 71.327 0 73.3368 0C74.9411 0 76.4937 0.194075 77.9946 0.582226V5.74463C77.4771 5.43411 76.8603 5.19259 76.1444 5.02008C75.4285 4.84757 74.7039 4.76132 73.9708 4.76132C72.4527 4.76132 71.2537 5.19691 70.3739 6.06809C69.5027 6.93927 69.0671 8.12098 69.0671 9.6132C69.0671 11.0968 69.5027 12.2699 70.3739 13.1324C71.2537 13.9864 72.4268 14.4133 73.8931 14.4133C75.2473 14.4133 76.6145 14.0683 77.9946 13.3783V18.3595Z" fill="black"/>
<path d="M49.325 4.68359V18.864H43.7098V4.68359H38.5215V0.310425H54.578V4.68359H49.325Z" fill="black"/>
<path d="M30.2925 13.2489C30.2925 14.4823 29.9605 15.5562 29.2963 16.4705C28.6407 17.3848 27.7178 18.0663 26.5275 18.5148C25.3372 18.9633 23.9053 19.1876 22.2319 19.1876C20.2912 19.1876 18.5143 18.8598 16.9013 18.2043V13.1195C17.6776 13.6888 18.5359 14.1502 19.4761 14.5039C20.4163 14.8489 21.2918 15.0214 22.1026 15.0214C22.715 15.0214 23.1894 14.9136 23.5258 14.698C23.8622 14.4737 24.0304 14.1502 24.0304 13.7276C24.0304 13.4257 23.9441 13.1626 23.7716 12.9384C23.6077 12.7055 23.3533 12.4898 23.0083 12.2914C22.6719 12.0931 22.0422 11.8213 21.1192 11.4763C18.1348 10.3291 16.6426 8.47462 16.6426 5.91283C16.6426 4.11871 17.324 2.68687 18.6868 1.61729C20.0497 0.539098 21.8783 0 24.1727 0C24.8196 0 25.4148 0.0258767 25.9582 0.0776301C26.5016 0.129384 26.9933 0.194075 27.4332 0.271706C27.8817 0.349336 28.5071 0.49597 29.3092 0.71161V5.43411C27.748 4.58018 26.2127 4.15321 24.7032 4.15321C24.0821 4.15321 23.5819 4.26966 23.2023 4.50255C22.8228 4.73544 22.633 5.05458 22.633 5.45999C22.633 5.84814 22.784 6.1716 23.0859 6.43036C23.3964 6.6805 24.039 7.00828 25.0137 7.41368C26.9372 8.18998 28.2957 9.0396 29.0893 9.96253C29.8915 10.8855 30.2925 11.9809 30.2925 13.2489Z" fill="black"/>
<path d="M0.792969 18.864V0.310425H6.38234V18.864H0.792969Z" fill="black"/>
<path d="M81.0018 106.314H77.3273V101.256H62.293V82.7019H66.4721V97.6845H74.1574V82.7019H78.3495V97.6845H81.0018V106.314Z" fill="black"/>
<path d="M59.7947 86.1047H54.5029V101.256H50.3108V86.1047H45.0449V82.7019H59.7947V86.1047Z" fill="black"/>
<path d="M42.5096 101.256H38.3176V93.6995H30.6322V101.256H26.4531V82.7019H30.6322V90.1026H38.3176V82.7019H42.5096V101.256Z" fill="black"/>
<path d="M22.235 101.256H18.1077V90.1544C18.1077 88.9554 18.1594 87.6314 18.263 86.1823H18.1594C17.9438 87.3209 17.7497 88.1403 17.5772 88.6406L13.2299 101.256H9.8142L5.38928 88.77C5.26853 88.4336 5.07445 87.571 4.80706 86.1823H4.69061C4.80275 88.0109 4.85881 89.6153 4.85881 90.9954V101.256H1.09375V82.7019H7.21359L11.0045 93.6995C11.3064 94.5793 11.5264 95.4634 11.6644 96.3519H11.742C11.9749 95.3254 12.2207 94.4327 12.4795 93.6736L16.2704 82.7019H22.235V101.256Z" fill="black"/>
</svg>
