<svg width="214" height="63" viewBox="0 0 214 63" fill="none" xmlns="http://www.w3.org/2000/svg">
<path d="M46.8866 32.4013C49.0196 31.3797 51.4123 32.0175 52.2321 33.8239C53.0519 35.6324 51.9876 37.9233 49.8545 38.9439C47.7215 39.9655 45.3288 39.3266 44.509 37.5202C43.6892 35.7128 44.7536 33.4208 46.8866 32.4013Z" fill="black"/>
<path d="M14.5751 50.9966C12.9484 49.2792 12.6953 46.9079 14.0085 45.6997C15.3217 44.4937 17.7058 44.9054 19.3314 46.6228C20.957 48.3391 21.2102 50.7114 19.897 51.9185C18.5837 53.1267 16.2008 52.714 14.5751 50.9966Z" fill="black"/>
<path d="M0.674353 42.7635C-0.388937 40.6184 -0.171322 38.3092 1.16129 37.6103C2.4939 36.9102 4.43626 38.083 5.49955 40.2303C6.56392 42.3775 6.34523 44.6835 5.01261 45.3835C3.68 46.0846 1.73872 44.9107 0.674353 42.7635Z" fill="black"/>
<path d="M35.1491 47.7291C36.0852 49.5161 35.3203 51.4672 33.4394 52.089C31.5584 52.7108 29.2757 51.7652 28.3395 49.9803C27.4022 48.1932 28.1682 46.2411 30.0492 45.6193C31.929 44.9986 34.2129 45.942 35.1491 47.7291Z" fill="black"/>
<path d="M44.6605 42.177C46.2043 43.4324 46.3099 45.6043 44.8964 47.0301C43.483 48.4559 41.0871 48.5952 39.5423 47.341C37.9996 46.0867 37.894 43.9126 39.3064 42.4879C40.7198 41.0632 43.1168 40.9238 44.6605 42.177Z" fill="black"/>
<path d="M34.6884 4.89854C35.2044 1.87758 37.1102 -0.299689 38.9448 0.0337095C40.7794 0.368181 41.8481 3.08897 41.3321 6.111C40.815 9.13196 38.9103 11.3092 37.0757 10.9769C35.241 10.6414 34.1724 7.9195 34.6884 4.89854Z" fill="black"/>
<path d="M49.6826 24.7728C47.3395 26.0635 45.0588 25.4964 44.5891 23.5067C44.1194 21.5149 45.6384 18.8552 47.9826 17.5655C50.3257 16.2727 52.6063 16.8398 53.076 18.8305C53.5457 20.8202 52.0268 23.481 49.6826 24.7728Z" fill="black"/>
<path d="M72.1834 62.6784L65.0733 53.8975L71.5047 47.4653H67.4649L62.3251 52.7075H62.2928V39.9076H58.9316V62.6784H62.2928V55.3126H62.3251L68.1436 62.6784H72.1834Z" fill="black"/>
<path fill-rule="evenodd" clip-rule="evenodd" d="M79.699 47.0794C77.5972 47.0794 75.7884 47.8502 74.4946 49.202C73.1048 50.6171 72.2969 52.7075 72.2969 55.1196C72.2969 57.5638 73.1048 59.7196 74.5915 61.1347C75.8519 62.3568 77.5972 63 79.699 63C81.8643 63 83.6742 62.2282 84.9992 60.9096C86.3889 59.4945 87.1646 57.403 87.1646 55.0231C87.1646 52.6743 86.4213 50.6171 85.0639 49.2342C83.7711 47.8502 81.929 47.0794 79.699 47.0794ZM79.6666 49.7798C82.2198 49.7798 83.7065 51.8724 83.7065 55.0553C83.7065 58.1437 82.3168 60.3307 79.7313 60.3307C77.2427 60.3307 75.7227 58.2081 75.7227 55.0553C75.7227 51.9357 77.0811 49.7798 79.6666 49.7798Z" fill="black"/>
<path fill-rule="evenodd" clip-rule="evenodd" d="M103.079 55.8593V54.9277C103.079 50.2001 100.558 47.0794 96.486 47.0794C92.3481 47.0794 89.7949 50.6171 89.7949 54.9588C89.7949 59.1086 92.0906 63 97.2293 63C99.0069 63 101.043 62.4533 102.562 61.3598L101.689 59.1718C100.494 59.8483 99.2008 60.2342 97.8434 60.2342C95.0963 60.2342 93.2864 58.3678 93.2541 55.8593H103.079ZM99.5886 53.3829H93.2218C93.2218 51.4865 94.4176 49.6833 96.4214 49.6833C98.5544 49.6833 99.5563 51.6141 99.5886 53.3829Z" fill="black"/>
<path d="M112.461 62.3246L112.041 59.8483C111.589 59.9759 111.265 59.9759 111.039 59.9759C110.199 59.9759 109.94 59.591 109.94 58.3678V39.9076H106.578V59.815C106.578 61.6171 107.484 63 109.779 63C110.651 63 111.492 62.8392 112.461 62.3246Z" fill="black"/>
<path d="M128.474 62.6784V52.5135C128.474 48.5577 126.082 47.0794 123.82 47.0794C121.719 47.0794 120.103 47.8834 118.39 49.1698L118.001 47.4653H115.189V62.6784H118.551V51.9035C119.747 50.9698 121.202 50.0693 122.721 50.0693C124.789 50.0693 125.112 51.9357 125.112 53.5759V62.6784H128.474Z" fill="black"/>
<path d="M155.317 62.6784V52.1919C155.317 48.3004 152.926 47.0794 150.405 47.0794C148.723 47.0794 146.655 47.9477 144.91 49.4582C144.295 48.011 142.906 47.0794 140.999 47.0794C139.285 47.0794 137.475 47.7869 135.698 49.1698L135.31 47.4653H132.498V62.6784H135.859V51.8392C136.959 50.9055 138.317 50.005 139.932 50.005C141.872 50.005 142.227 51.4222 142.227 53.2221V62.6784H145.588V52.4502V51.8081C146.655 50.9055 148.044 50.005 149.66 50.005C151.601 50.005 151.924 51.3557 151.924 53.1588V62.6784H155.317Z" fill="black"/>
<path fill-rule="evenodd" clip-rule="evenodd" d="M171.684 55.8593V54.9277C171.684 50.2001 169.164 47.0794 165.091 47.0794C160.954 47.0794 158.4 50.6171 158.4 54.9588C158.4 59.1086 160.695 63 165.835 63C167.612 63 169.648 62.4533 171.167 61.3598L170.295 59.1718C169.099 59.8483 167.806 60.2342 166.449 60.2342C163.701 60.2342 161.891 58.3678 161.858 55.8593H171.684ZM168.194 53.3829H161.826C161.826 51.4865 163.022 49.6833 165.027 49.6833C167.16 49.6833 168.162 51.6141 168.194 53.3829Z" fill="black"/>
<path d="M184.912 58.3367C184.912 53.1899 177.769 53.9939 177.769 51.2603C177.769 50.2001 178.738 49.7477 180.161 49.7477C181.776 49.7477 183.07 50.2001 184.298 50.7136V47.8834C183.166 47.4332 181.776 47.0794 179.999 47.0794C176.412 47.0794 174.472 48.9447 174.472 51.4222C174.472 56.6944 181.486 55.5387 181.486 58.5929C181.486 59.7518 180.354 60.4261 178.674 60.4261C177.09 60.4261 175.668 59.8483 174.666 59.1718L173.535 61.6482C174.731 62.3568 176.412 63 178.835 63C182.101 63 184.912 61.6814 184.912 58.3367Z" fill="black"/>
<path d="M198.407 58.3367C198.407 53.1899 191.263 53.9939 191.263 51.2603C191.263 50.2001 192.233 49.7477 193.655 49.7477C195.271 49.7477 196.563 50.2001 197.791 50.7136V47.8834C196.66 47.4332 195.271 47.0794 193.493 47.0794C189.906 47.0794 187.967 48.9447 187.967 51.4222C187.967 56.6944 194.98 55.5387 194.98 58.5929C194.98 59.7518 193.849 60.4261 192.168 60.4261C190.584 60.4261 189.162 59.8483 188.16 59.1718L187.029 61.6482C188.225 62.3568 189.906 63 192.33 63C195.594 63 198.407 61.6814 198.407 58.3367Z" fill="black"/>
<path fill-rule="evenodd" clip-rule="evenodd" d="M214 55.8593V54.9277C214 50.2001 211.478 47.0794 207.406 47.0794C203.269 47.0794 200.715 50.6171 200.715 54.9588C200.715 59.1086 203.011 63 208.149 63C209.927 63 211.963 62.4533 213.483 61.3598L212.609 59.1718C211.413 59.8483 210.121 60.2342 208.763 60.2342C206.016 60.2342 204.206 58.3678 204.174 55.8593H214ZM210.509 53.3829H204.142C204.142 51.4865 205.338 49.6833 207.341 49.6833C209.474 49.6833 210.476 51.6141 210.509 53.3829Z" fill="black"/>
</svg>
