<svg width="198" height="48" viewBox="0 0 198 48" fill="none" xmlns="http://www.w3.org/2000/svg">
<path d="M13 2V11.1262H22.4209V35H31V2H13Z" fill="#231815"/>
<path d="M12 0H10V11H12V0Z" fill="#231815"/>
<path d="M0 2V35H17V25.8737H8.07194V2H0Z" fill="#231815"/>
<path d="M21 26H19V37H21V26Z" fill="#231815"/>
<path d="M51 1H42V36H51V1Z" fill="black"/>
<path d="M105 10.4539V36H113.471V22.9676C113.538 16.581 121 16.1596 121 16.1596V10C116.866 10 113.471 13.0474 113.471 13.0474V10.4215H105V10.4539Z" fill="black"/>
<path d="M139 11V36H147.091V21.2662C147.091 17.7174 153.076 17.4639 153.076 21.2662V36H161V17.3054C161 13.5349 155.784 7.98986 147.058 13.3764V11.0317H139V11Z" fill="black"/>
<path d="M194 8.41935C192.129 8.41935 190.581 6.87097 190.581 5C190.581 3.12903 192.129 1.58065 194 1.58065C195.871 1.58065 197.419 3.12903 197.419 5C197.419 6.90323 195.903 8.41935 194 8.41935ZM194 1C191.806 1 190 2.80645 190 5C190 7.22581 191.806 9 194 9C196.194 9 198 7.19355 198 5C198 2.80645 196.226 1 194 1Z" fill="#231815"/>
<path d="M192.667 5.26923H194.185C194.667 5.26923 195.148 5.15384 195.148 4.42307C195.148 3.65384 194.593 3.57692 194.296 3.57692H192.667V5.26923ZM192.667 8H192V3H194.222C195 3 195.815 3.26923 195.815 4.34615C195.815 5.07692 195.444 5.34616 195.148 5.53846C195.407 5.65385 195.704 5.76923 195.704 6.46154L195.741 7.38461C195.741 7.65384 195.778 7.76922 196 7.88461V8H195.222C195.111 7.69231 195.111 6.92307 195.111 6.73076C195.111 6.30769 195.037 5.84615 194.259 5.84615H192.704V8H192.667Z" fill="#231815"/>
<path d="M122.192 15.9577C122.192 15.9577 122.913 15.7634 125.861 15.8929C129.629 16.0224 129.17 19.066 129.17 19.066C129.17 19.066 127.335 17.9651 124.715 17.9328C121.799 17.868 116 19.6488 116 27.2254C116 33.9278 121.406 35.8705 124.649 35.8705C127.761 35.8705 129.53 34.3811 129.53 34.3811V36H137V18.6127C137 15.213 136.378 14.3064 134.805 12.5903C132.643 10.1943 127.466 10 127.466 10H122.192V15.9577ZM122.978 26.6102C122.978 24.797 124.452 23.34 126.287 23.34C128.122 23.34 129.596 24.797 129.596 26.6102C129.596 28.4234 128.122 29.8805 126.287 29.8805C124.452 29.8805 122.978 28.4234 122.978 26.6102Z" fill="black"/>
<path d="M174.093 28.3955C171.24 28.3955 168.93 26.1857 168.93 23.4559C168.93 20.7261 171.24 18.5163 174.093 18.5163C176.946 18.5163 179.256 20.7261 179.256 23.4559C179.256 26.1857 176.946 28.3955 174.093 28.3955ZM174.195 11.2043C165.635 11.0093 161.967 17.9313 162.001 23.3584C161.933 30.4754 166.858 36.2925 174.127 35.7075C175.859 35.545 177.286 34.8951 178.712 33.8227V36H187V1H178.712V12.6342C176.98 11.4318 174.195 11.2043 174.195 11.2043Z" fill="black"/>
<path d="M90.8107 28.7008C87.9105 28.7008 85.5627 26.5004 85.5627 23.7821C85.5627 21.0639 87.9105 18.8311 90.8107 18.8311C93.711 18.8311 96.0934 21.0315 96.0934 23.7821C96.0588 26.5004 93.711 28.7008 90.8107 28.7008ZM91.3977 40.5769C87.5307 40.4151 86.7366 38.1175 86.7366 38.1175H77C79.0371 50.8673 102.895 51.3527 104 39.153V11H95.8517V13.6535C90.2583 8.34649 77.2072 12.1973 77.656 24.1381C78.0703 35.3022 90.7072 38.6676 95.8517 34.3314V37.3409C95.8517 40.7387 91.3977 40.5769 91.3977 40.5769Z" fill="black"/>
<path d="M60.8331 19.7844C61.0838 17.6209 62.8071 15.9233 64.9064 15.9233C67.0057 15.9233 68.7603 17.6209 68.9796 19.7844H60.8331ZM64.9064 9C58.8905 9 53 14.2258 53 22.5138C53 31.8003 58.4832 37.2258 65.6897 36.9928C71.2356 36.7931 75.0581 33.0984 76.4368 27.8727H68.9483C68.5723 28.7048 67.4756 29.6701 65.251 29.6701C62.4311 29.6701 60.9585 27.4732 60.9585 25.2764H76.9067C77.8154 15.5905 71.9562 9 64.9064 9Z" fill="black"/>
</svg>
