<svg width="112" height="88" viewBox="0 0 112 88" fill="none" xmlns="http://www.w3.org/2000/svg">
<path fill-rule="evenodd" clip-rule="evenodd" d="M34.7077 25.3021C37.0897 19.7223 41.5872 15.2485 47.1823 12.8964V0.0181427H64.6422V12.6812C70.4841 14.9681 75.192 19.5474 77.6491 25.3021H88.7869H90.3602V25.3579C102.272 26.1712 111.738 36.1412 111.738 48.2529C111.738 60.3652 102.272 70.335 90.3602 71.1485V81.0787H64.6422V87.0471H47.1823V81.0787H21.4644V69.9442C9.95323 69.0582 0.835938 59.388 0.835938 47.6562C0.835938 35.9242 9.95323 26.2547 21.4644 25.3685V25.3021H23.1899H34.7077Z" fill="#231F20"/>
<path fill-rule="evenodd" clip-rule="evenodd" d="M52.9226 81.0787H58.9015V51.9863C62.5542 51.4282 65.8507 49.7666 68.4406 47.3543V75.523H74.2024V36.5662L89.1198 36.5223C95.1953 36.9551 100.018 42.0447 100.018 48.2272C100.018 54.5566 94.9647 59.7416 88.6859 59.9564V59.9185H85.2205H79.4586V65.9839V75.5015H85.2205V65.9839H88.6859V65.9776C98.2801 65.7609 106.038 57.872 106.038 48.2272C106.038 38.4892 98.1295 30.54 88.4067 30.4712V30.5003H73.8124C72.2883 23.2055 66.3291 17.507 58.9015 16.3718V5.98688H52.9226V16.462C45.7043 17.7892 39.9682 23.4438 38.5198 30.6194H24.3618V30.6129C24.0682 30.5975 23.7732 30.5892 23.4761 30.5892C14.114 30.5892 6.47852 38.2248 6.47852 47.5867C6.47852 56.6269 13.5984 64.0566 22.5172 64.557V58.9689C16.943 58.3807 12.5749 53.6435 12.5749 47.9176C12.5749 41.7967 17.5668 36.8045 23.6877 36.8045C23.914 36.8045 24.1388 36.8116 24.3618 36.8253V36.8045H27.2048V75.7615H33.0644V36.8045H38.1649V75.7615H43.9269V47.3635C46.3886 49.6527 49.4873 51.2647 52.9226 51.8965V81.0787ZM43.9922 30.6194H46.9545V36.8045H43.9269V37.5075C45.1127 41.8576 48.5622 45.2899 52.9226 46.4505V21.9079C48.6402 23.0478 45.2359 26.3798 43.9922 30.6194ZM58.9015 46.5792V21.7786C64.5928 23.0312 68.8745 28.1208 68.8745 34.1791C68.8745 40.2373 64.5928 45.327 58.9015 46.5792Z" fill="white"/>
</svg>
