<svg width="250" height="49" viewBox="0 0 250 49" fill="none" xmlns="http://www.w3.org/2000/svg">
<path d="M79.1436 17.1832H67.4182V36.7701H61.9375V12.1694H84.6242V36.7701H79.1436V17.1832Z" fill="black"/>
<path d="M90.7305 36.7701V12.1694H96.2111V28.2092L109.478 12.1694H114.232V36.7701H108.756V20.7805L95.4895 36.7701H90.7305Z" fill="black"/>
<path d="M120.348 12.1694H125.828V22.151L136.641 12.1694H143.807L131.645 23.2874L144.236 36.7701H137.218L127.654 26.6466L125.828 28.3973V36.7701H120.348V12.1694Z" fill="black"/>
<path d="M146.783 15.2485C149.139 12.9798 153.176 11.6052 157.26 11.6052C163.849 11.6052 167.499 15.2945 167.499 21.7288V36.7742H162.019V34.0793C160.533 35.688 157.981 37.0583 154.28 37.0583C148.8 37.0583 145.195 34.0292 145.195 29.2995C145.195 23.8137 150.243 21.4948 156.874 21.4948C158.653 21.4948 160.864 21.7789 162.015 22.1549C162.065 18.6077 160.67 16.619 156.632 16.619C153.894 16.619 151.873 17.4254 149.47 19.2219L146.779 15.2485H146.783ZM162.019 29.0154V26.6507C161.012 26.3206 159.234 25.9863 157.456 25.9863C153.511 25.9863 150.867 26.7926 150.867 29.2494C150.867 31.1881 152.693 32.3705 155.481 32.3705C158.797 32.3705 160.911 30.6658 162.015 29.0113" fill="black"/>
<path d="M196.446 31.142C194.379 35.1154 190.053 37.1961 185.727 37.1961C177.703 37.1961 172.27 32.1825 172.27 24.4238C172.27 17.1371 177.554 11.6052 185.438 11.6052C190.583 11.6052 194.523 13.9241 196.157 17.1872L192.069 19.8362C190.384 17.6134 188.512 16.619 185.675 16.619C181.155 16.619 177.937 19.786 177.937 24.4238C177.937 29.0615 181.205 32.1824 186.253 32.1824C189.089 32.1824 191.156 30.7619 192.549 28.6812L196.442 31.142H196.446Z" fill="black"/>
<path d="M221.927 31.142C219.86 35.1154 215.533 37.1961 211.207 37.1961C203.184 37.1961 197.75 32.1825 197.75 24.4238C197.75 17.1371 203.04 11.6052 210.923 11.6052C216.064 11.6052 220.008 13.9241 221.643 17.1872L217.554 19.8362C215.869 17.6134 213.997 16.619 211.161 16.619C206.639 16.619 203.421 19.786 203.421 24.4238C203.421 29.0615 206.691 32.1824 211.738 32.1824C214.575 32.1824 216.642 30.7619 218.033 28.6812L221.927 31.142Z" fill="black"/>
<path d="M236.59 11.6052C244.473 11.6052 250.001 16.9992 250.001 24.4238C250.001 31.8482 244.473 37.1961 236.59 37.1961C228.706 37.1961 223.23 31.8023 223.23 24.4238C223.23 17.0451 228.663 11.6052 236.59 11.6052ZM236.59 32.1824C241.158 32.1824 244.328 29.1533 244.328 24.4238C244.328 19.6941 240.916 16.619 236.59 16.619C232.264 16.619 228.902 19.598 228.902 24.4238C228.902 28.8692 232.026 32.1824 236.59 32.1824Z" fill="black"/>
<path d="M12.8751 38.5566C14.8226 36.7755 16.3778 34.6087 17.4416 32.1942C18.5054 29.7796 19.0545 27.1701 19.0539 24.5319C19.0603 21.8926 18.5137 19.2813 17.4496 16.8658C16.3855 14.4505 14.8271 12.2844 12.8751 10.5071C11.1411 14.9809 10.2408 19.7341 10.2188 24.5319C10.2583 29.3278 11.158 34.078 12.8751 38.5566Z" fill="black"/>
<path d="M16.7996 47.7863C15.0897 45.428 13.6376 42.8932 12.4685 40.2256C11.1578 41.2655 9.72227 42.1381 8.19531 42.8227C10.6739 45.0752 13.6084 46.768 16.7996 47.7863Z" fill="black"/>
<path d="M28.8712 24.5323C28.8712 19.1239 27.3505 13.8242 24.4824 9.23779C21.6144 13.8242 20.0936 19.1239 20.0938 24.5323C20.0936 29.9407 21.6144 35.2403 24.4824 39.8267C27.3505 35.2403 28.8712 29.9407 28.8712 24.5323Z" fill="black"/>
<path d="M23.845 40.8062C21.6179 37.3569 20.1241 33.4868 19.4562 29.4363C18.4771 33.3711 16.3218 36.9143 13.2773 39.5941C14.4423 42.348 15.9145 44.9618 17.666 47.3856C20.0567 45.5283 22.1416 43.3083 23.845 40.8062Z" fill="black"/>
<path d="M36.8984 9.75382C38.2558 13.1987 39.149 16.8087 39.5548 20.4887C40.2075 18.969 41.2131 17.6264 42.4885 16.5725C43.7639 15.5186 45.2723 14.7837 46.8886 14.4287C45.6251 11.6049 43.8202 9.05588 41.5759 6.92578C39.8777 7.6169 38.2992 8.57129 36.8984 9.75382Z" fill="black"/>
<path d="M39.7266 24.5321C39.7355 26.6837 40.4873 28.7664 41.8552 30.4278C43.223 32.0893 45.1228 33.2279 47.2336 33.651C48.4001 30.7533 48.9887 27.6555 48.966 24.5321C48.9603 21.4113 48.3728 18.3189 47.2336 15.4131C45.1188 15.8279 43.2138 16.9642 41.8445 18.6275C40.4751 20.2909 39.7264 22.378 39.7266 24.5321Z" fill="black"/>
<path d="M25.0703 8.25416C27.2875 11.6875 28.7808 15.5367 29.4591 19.5663C30.4382 15.6316 32.5935 12.0883 35.638 9.40846C34.473 6.65453 33.0007 4.04081 31.2492 1.61694C28.8992 3.54037 26.8207 5.77307 25.0703 8.25416Z" fill="black"/>
<path d="M19.461 19.6243C20.1389 15.5765 21.632 11.7085 23.8496 8.25445C22.1647 5.77265 20.099 3.57173 17.7285 1.73267C15.977 4.15654 14.5048 6.77025 13.3398 9.52418C16.3583 12.1922 18.4932 15.7149 19.461 19.6243Z" fill="black"/>
<path d="M12.4685 8.76965C13.6152 6.09071 15.0685 3.55357 16.7996 1.20898C13.6288 2.27317 10.7033 3.96081 8.19531 6.17246C9.72924 6.84384 11.1664 7.71732 12.4685 8.76965Z" fill="black"/>
<path d="M36.089 10.5071C34.142 12.2884 32.5871 14.4553 31.5233 16.8697C30.4595 19.2842 29.9102 21.8936 29.9102 24.5319C29.9102 27.17 30.4595 29.7794 31.5233 32.1939C32.5871 34.6085 34.142 36.7753 36.089 38.5566C37.8283 34.0842 38.7287 29.33 38.7455 24.5319C38.7059 19.7358 37.8062 14.9858 36.089 10.5071Z" fill="black"/>
<path d="M12.0644 39.3048C10.7071 35.86 9.81381 32.25 9.40802 28.5698C8.75536 30.0897 7.74966 31.4323 6.47426 32.4862C5.19886 33.5401 3.69051 34.275 2.07422 34.63C3.33767 37.4538 5.14258 40.0028 7.3869 42.1329C9.0739 41.4197 10.6492 40.4673 12.0644 39.3048Z" fill="black"/>
<path d="M30.6624 48.1353C28.3033 46.288 26.2223 44.111 24.4836 41.6711C22.7449 44.111 20.664 46.288 18.3047 48.1353C18.3624 48.1929 18.3624 48.2507 18.4202 48.2507C20.4055 48.7344 22.4403 48.9861 24.4836 49.0009C26.527 48.9861 28.5616 48.7344 30.547 48.2507L30.6624 48.1353Z" fill="black"/>
<path d="M39.497 28.5698C39.1385 32.2523 38.2636 35.8659 36.8984 39.3048C38.308 40.4751 39.8845 41.4285 41.5759 42.1329C43.7844 39.972 45.5841 37.4302 46.8886 34.63C45.2691 34.2658 43.7572 33.5282 42.4737 32.476C41.1903 31.4238 40.171 30.0861 39.497 28.5698Z" fill="black"/>
<path d="M9.24008 24.5321C9.23124 22.3805 8.47935 20.2979 7.11152 18.6364C5.7437 16.9748 3.84381 15.8363 1.73303 15.4131C0.566536 18.3109 -0.0219635 21.4086 0.000626521 24.5321C0.00640107 27.6529 0.59389 30.7453 1.73303 33.651C3.84381 33.2279 5.7437 32.0893 7.11152 30.4278C8.47935 28.7664 9.23124 26.6837 9.24008 24.5321Z" fill="black"/>
<path d="M40.7722 6.17246C38.2642 3.96081 35.3387 2.27317 32.168 1.20898C33.8779 3.56723 35.33 6.10194 36.499 8.76965C37.8012 7.71732 39.2383 6.84384 40.7722 6.17246Z" fill="black"/>
<path d="M36.499 40.2859C35.3524 42.9648 33.899 45.5019 32.168 47.8466C35.349 46.8052 38.2789 45.1151 40.7722 42.883C39.2383 42.2117 37.8012 41.3382 36.499 40.2859Z" fill="black"/>
<path d="M9.40888 20.4887C9.787 16.8038 10.6812 13.1902 12.0652 9.75382C10.6557 8.58349 9.07917 7.63029 7.38775 6.92578C5.17891 9.07364 3.396 11.6193 2.13281 14.4287C3.74159 14.7849 5.24164 15.5209 6.50749 16.5753C7.77335 17.6296 8.76821 18.9715 9.40888 20.4887Z" fill="black"/>
<path d="M31.2383 47.328C32.9899 44.904 34.462 42.2904 35.627 39.5365C32.6086 36.8684 30.4736 33.3458 29.5058 29.4363C28.8279 33.4841 27.3348 37.3521 25.1172 40.8062C26.8021 43.2879 28.8678 45.4889 31.2383 47.328Z" fill="black"/>
<path d="M18.3047 0.865724C20.664 2.713 22.7449 4.89001 24.4836 7.32979C26.2223 4.89001 28.3033 2.713 30.6624 0.865724C30.6325 0.863689 30.6043 0.850875 30.583 0.829652C30.5619 0.80843 30.549 0.780237 30.547 0.750294C28.5616 0.266614 26.527 0.0148323 24.4836 0C22.4403 0.0148323 20.4055 0.266614 18.4202 0.750294C18.4182 0.780237 18.4053 0.80843 18.3841 0.829652C18.3629 0.850875 18.3347 0.863689 18.3047 0.865724Z" fill="black"/>
</svg>
