<svg width="97" height="89" viewBox="0 0 97 89" fill="none" xmlns="http://www.w3.org/2000/svg">
<path d="M96.9989 88.7549H93.5133L90.9933 84.8792L88.4262 88.7549H85.0977L89.2427 82.8227L85.184 76.9775H88.6618L91.0954 80.6476L93.5997 76.9775H96.9361L92.8539 82.7041L96.9989 88.7549Z" fill="black"/>
<path d="M83.8651 88.7549H75.4102V76.9775H83.8651V79.2555H78.409V81.2883H83.4726V83.5662H78.409V86.4769H83.8651V88.7549Z" fill="black"/>
<path d="M72.4186 88.7549H69.4197V80.869L67.253 85.9865H65.1726L63.0059 80.869V88.7549H60.1641V76.9775H63.6654L66.2952 82.886L68.9173 76.9775H72.4186V88.7549Z" fill="black"/>
<path d="M57.7089 88.7549H50.8633V86.6668H52.7788V79.0657H50.8633V76.9775H57.7089V79.0657H55.7934V86.6668H57.7089V88.7549Z" fill="black"/>
<path d="M49.0885 82.8781C49.0885 83.9749 48.8399 84.9583 48.3427 85.8283C47.8456 86.6931 47.2175 87.3575 46.4586 87.8215C45.8882 88.1696 45.2628 88.4121 44.5824 88.5492C43.902 88.6863 43.096 88.7549 42.1644 88.7549H38.043V76.9775H42.2822C43.2347 76.9775 44.0564 77.0593 44.7472 77.2227C45.4381 77.3809 46.019 77.6077 46.49 77.903C47.296 78.3986 47.9293 79.0683 48.3898 79.912C48.8556 80.7504 49.0885 81.7391 49.0885 82.8781ZM45.9719 82.8543C45.9719 82.0792 45.8306 81.4174 45.548 80.869C45.2706 80.3154 44.8284 79.883 44.2213 79.5719C43.9125 79.419 43.5958 79.3161 43.2714 79.2634C42.9521 79.2054 42.468 79.1764 41.819 79.1764H41.0575V86.5481H41.819C42.536 86.5481 43.062 86.5165 43.397 86.4532C43.7319 86.3846 44.059 86.2634 44.3783 86.0894C44.9278 85.773 45.3308 85.3511 45.5872 84.8238C45.8437 84.2912 45.9719 83.6348 45.9719 82.8543Z" fill="black"/>
<path d="M35.734 82.87C35.734 84.7472 35.2002 86.2395 34.1325 87.3468C33.0649 88.4489 31.589 88.9999 29.7049 88.9999C27.826 88.9999 26.3527 88.4489 25.2851 87.3468C24.2174 86.2395 23.6836 84.7472 23.6836 82.87C23.6836 80.977 24.2174 79.4821 25.2851 78.3853C26.3527 77.2832 27.826 76.7322 29.7049 76.7322C31.5785 76.7322 33.0518 77.2832 34.1247 78.3853C35.1976 79.4821 35.734 80.977 35.734 82.87ZM31.7381 85.8519C32.0312 85.4933 32.2484 85.0715 32.3897 84.5864C32.531 84.096 32.6017 83.5212 32.6017 82.8621C32.6017 82.1555 32.5206 81.5544 32.3583 81.0587C32.1961 80.563 31.9841 80.1623 31.7224 79.8565C31.4555 79.5401 31.1467 79.3107 30.7961 79.1683C30.4507 79.026 30.0896 78.9548 29.7127 78.9548C29.3307 78.9548 28.9696 79.0233 28.6294 79.1604C28.2944 79.2975 27.9856 79.5243 27.703 79.8406C27.4413 80.1359 27.2268 80.5446 27.0593 81.0666C26.897 81.5834 26.8159 82.1845 26.8159 82.87C26.8159 83.5713 26.8944 84.1698 27.0514 84.6655C27.2137 85.1559 27.4256 85.5566 27.6873 85.8677C27.949 86.1788 28.2552 86.4082 28.6058 86.5559C28.9565 86.7035 29.3254 86.7773 29.7127 86.7773C30.1 86.7773 30.469 86.7035 30.8196 86.5559C31.1703 86.4029 31.4765 86.1683 31.7381 85.8519Z" fill="black"/>
<path d="M18.3442 80.5843C18.3442 80.289 18.284 80.0359 18.1636 79.825C18.0432 79.6141 17.8365 79.448 17.5434 79.3267C17.3393 79.2423 17.1012 79.1922 16.829 79.1764C16.5569 79.1553 16.2403 79.1448 15.8791 79.1448H14.7879V82.3165H15.7143C16.1958 82.3165 16.5988 82.2928 16.9232 82.2453C17.2477 82.1978 17.5199 82.0898 17.7397 81.921C17.949 81.7576 18.1008 81.5783 18.195 81.3832C18.2945 81.1828 18.3442 80.9165 18.3442 80.5843ZM23.0466 88.7549H19.3647L16.1775 84.4363H14.7879V88.7549H11.7891V76.9775H16.8447C17.5356 76.9775 18.1296 77.0171 18.6268 77.0962C19.124 77.1753 19.5898 77.3467 20.0242 77.6103C20.4638 77.874 20.8118 78.2167 21.0683 78.6385C21.33 79.0551 21.4608 79.5798 21.4608 80.2125C21.4608 81.0826 21.2593 81.7918 20.8563 82.3402C20.4586 82.8886 19.8881 83.3447 19.1449 83.7086L23.0466 88.7549Z" fill="black"/>
<path d="M9.64819 80.695C9.64819 81.2223 9.5566 81.7391 9.37342 82.2453C9.19025 82.7462 8.92857 83.1681 8.58838 83.5108C8.12259 83.9749 7.60184 84.3255 7.02614 84.5628C6.45568 84.8001 5.7439 84.9187 4.89082 84.9187H3.01457V88.7549H0V76.9775H4.96148C5.70465 76.9775 6.33007 77.0435 6.83773 77.1753C7.35063 77.3018 7.80333 77.4943 8.19586 77.7527C8.66688 78.0638 9.02539 78.4619 9.27137 78.947C9.52258 79.4321 9.64819 80.0148 9.64819 80.695ZM6.53156 80.7662C6.53156 80.434 6.44259 80.1493 6.26465 79.912C6.08671 79.6694 5.87998 79.5007 5.64446 79.4058C5.33045 79.2792 5.02428 79.2107 4.72596 79.2001C4.42765 79.1843 4.02989 79.1764 3.5327 79.1764H3.01457V82.7041H3.87812C4.39101 82.7041 4.81232 82.6724 5.14204 82.6091C5.47699 82.5459 5.75699 82.4193 5.98203 82.2295C6.17568 82.0608 6.31437 81.8604 6.39811 81.6284C6.48708 81.3911 6.53156 81.1037 6.53156 80.7662Z" fill="black"/>
<path fill-rule="evenodd" clip-rule="evenodd" d="M39.9584 26.2427C34.7261 21.2997 34.4496 13.0205 39.3378 7.72499L46.4666 8.39233e-05L63.8981 16.328L63.8885 16.3395C68.8866 21.3069 69.0839 29.4143 64.2668 34.6231C64.2371 34.656 64.2067 34.6876 64.177 34.719L64.157 34.7002L48.278 51.8722L48.2681 51.8636L48.1987 51.9378L29.1946 34.1002C28.2707 35.1503 28.3332 36.7516 29.3385 37.7275L29.2917 37.7789L46.2951 53.7395L46.3228 53.7108C46.3525 53.7425 46.3836 53.7722 46.4156 53.8022C47.4578 54.781 49.0836 54.7325 50.0675 53.7036L50.1101 53.7425L74.6469 27.2057C78.5584 30.9331 79.2185 37.6575 74.8248 42.4163L57.6485 60.9911L57.6052 60.9514C52.6991 66.1242 44.5672 66.3843 39.3442 61.5142L39.3195 61.5413L22.1799 45.4521L22.2267 45.4023C17.0194 40.4734 16.7272 32.2331 21.5695 26.9427L21.5461 26.9215L28.6501 19.2395L47.6875 37.1089L56.6893 27.3742L56.7087 27.3927C57.6103 26.3413 57.5417 24.7555 56.5433 23.7869L56.5505 23.7796L47.014 14.8281C46.997 14.8466 46.98 14.8638 46.9622 14.8825C45.9918 15.9307 46.0391 17.5695 47.0613 18.5609L47.0693 18.5524L54.7269 25.7415L47.6237 33.423L39.9653 26.2344L39.9584 26.2427Z" fill="black"/>
</svg>
