<svg width="145" height="44" viewBox="0 0 145 44" fill="none" xmlns="http://www.w3.org/2000/svg">
<path d="M29.5143 0.000278473L14.7559 14.667H29.5143V44L44.2727 29.3683V0.000278473H29.5143Z" fill="black"/>
<path d="M14.7584 43.9998L29.5167 29.3331H14.7584V7.62939e-06L0 14.6319V43.9998H14.7584Z" fill="black"/>
<path d="M59.0332 36.6668H66.7812V13.9333H78.5875V36.6668H86.3356V7.33323H59.0332V36.6668ZM134.296 18.324H127.676V13.9333H142.417V7.33323H119.928V36.6668C119.928 36.6668 130.98 36.6663 134.664 36.6663C140.572 36.6658 145 33.7228 145 27.495C145 21.2563 140.572 18.324 134.296 18.324ZM133.557 30.4335H127.676V24.5728H133.557C135.386 24.5728 137.236 25.2889 137.236 27.495C137.236 29.7018 135.386 30.4335 133.557 30.4335ZM105.299 30.4156C100.128 30.4156 97.2204 26.6477 97.2204 21.9903C97.2204 18.2507 99.337 13.5574 105.152 13.5574C108.782 13.5574 111.124 15.7624 111.954 16.7894L116.665 12.1073C113.823 8.73578 109.556 6.59008 104.784 6.59008C96.2252 6.59008 89.4719 12.8856 89.4719 21.9903C89.4719 30.4956 96.2252 37.3901 104.784 37.3901C109.907 37.3901 114.448 34.9174 117.269 31.1087L112.528 26.3966C111.028 28.7317 108.579 30.4156 105.299 30.4156Z" fill="black"/>
</svg>
