<svg width="147" height="94" viewBox="0 0 147 94" fill="none" xmlns="http://www.w3.org/2000/svg">
<path d="M80.0833 38.5169V68.6157H75.3215V38.5169H80.0833ZM73.1705 31.6055V68.6157H68.4101V31.6055H73.1705ZM66.259 38.5169V68.6157H61.5V38.5169H66.259Z" fill="white" stroke="black"/>
<path d="M94.398 34.5572L88.6428 40.3162V20.7185H94.4032M87.4904 41.466L81.73 47.229V13.8005H87.4904M74.8186 36.8632H80.5816V6.90617H74.8186V36.8632ZM67.9072 29.9518H73.6663V0H67.9072V29.9518ZM60.9971 36.8632H66.7549V6.90617H60.9971V36.8632ZM59.8434 47.2277L54.083 41.466V13.8005H59.8434M47.1728 20.7185V34.5558L52.9306 40.3176V20.7185M15.1205 76.2115C18.0034 76.2115 20.3594 78.5306 20.3594 81.3647V82.471C20.3594 84.8823 18.654 86.9184 16.3743 87.4742L21.1167 93.3333H14.2685L9.64723 87.6256H6.84874V93.3333H0.00051528V76.2128C-0.0744991 76.2128 8.05508 76.2115 15.1205 76.2115ZM6.84874 83.6301H12.6671C13.531 83.6301 14.2395 82.9348 14.2395 82.0841V81.7535C14.2395 80.9015 13.5323 80.2074 12.6671 80.2074H6.84874M49.1128 93.3323H58.8148C61.7978 93.3323 64.2381 90.8932 64.2381 87.9116C64.2381 84.9274 61.7978 82.4896 58.8148 82.4896H52.0338C51.5267 82.4896 51.1106 82.0749 51.1106 81.5691V81.1266C51.1106 80.6209 51.5255 80.2074 52.0338 80.2074H56.4667C56.9737 80.2074 57.3886 80.6209 57.3886 81.1266V81.3466H64.2302C64.0788 78.4967 61.7016 76.2117 58.8148 76.2117H49.1128C46.1324 76.2117 43.6908 78.6507 43.6908 81.6337C43.6908 84.6153 46.1324 87.0544 49.1128 87.0544H55.8964C56.4035 87.0544 56.8197 87.4691 56.8197 87.9762V88.4174C56.8197 88.9231 56.4021 89.3392 55.8964 89.3392H51.4623C50.9552 89.3392 50.5404 88.9231 50.5404 88.4174V88.1975H43.6987C43.8488 91.0446 46.2273 93.3323 49.1128 93.3323ZM80.2181 93.3323H87.0651V76.2117H80.2181V86.0798L72.2268 76.2117H65.3799V93.3323H72.2268V83.4656M108.114 93.3323H114.964V87.0542H125.225V82.4898L114.964 82.4608V80.7777H126.509V76.2117H108.114M21.1206 84.7483C21.1206 90.3559 24.7858 93.3323 32.0251 93.3323C39.2658 93.3323 42.931 90.3559 42.931 84.7483C42.931 79.1393 39.2658 76.2117 32.0251 76.2117C24.7858 76.2117 21.1206 79.1394 21.1206 84.7483ZM32.0251 80.206C34.2508 80.206 36.0696 81.7535 36.0696 83.6499V85.8941C36.0696 87.7891 34.2508 89.3405 32.0251 89.3405C29.8021 89.3405 27.982 87.7891 27.982 85.8941V83.6499C27.982 81.7535 29.8021 80.206 32.0251 80.206ZM88.3991 93.3323H107.354V88.7677H95.2461V87.0544H105.507V82.4898L95.2461 82.4608V80.7777H106.792V76.2117H88.3991M133.447 93.3323H140.298V80.7776H146.302V76.2131H127.271V80.7776H133.447" fill="black"/>
</svg>
