<svg width="80" height="79" viewBox="0 0 80 79" fill="none" xmlns="http://www.w3.org/2000/svg">
<path d="M0 0H80V79H0V0Z" fill="black"/>
<path d="M6.06502 34.47C4.94 29.8411 8.89021 25.5208 13.2527 24.5024C20.4463 22.9163 28.0901 23.4409 35.0212 25.8911C36.3838 26.2368 37.6526 26.8663 38.7964 27.6686C37.6651 29.2239 36.6963 30.884 35.7774 32.5632C31.4402 30.5696 26.7213 29.1559 21.8963 29.2547C19.3086 29.3165 16.3463 28.909 14.2027 30.6928C13.1902 31.3037 12.815 33.001 13.8714 33.7481C16.159 35.5871 19.2652 35.482 22.021 35.9204C26.5462 36.3278 31.3152 36.3895 35.4402 38.5188C39.0339 40.3211 40.7649 45.2153 38.7027 48.7332C37.1402 51.4797 34.0652 52.8499 31.1902 53.8433C23.0652 56.2195 14.0027 55.6766 6.35896 51.9795C7.32771 50.1342 7.58377 47.8815 9.17727 46.4062C12.2525 48.2086 15.8777 48.4801 19.3401 48.9059C22.4651 49.1467 25.6402 48.7949 28.6336 47.9061C30.0963 47.4186 31.7776 45.925 30.8213 44.2832C28.9461 42.1354 25.7398 42.3887 23.1338 42.1417C18.8338 41.6973 14.2215 41.8885 10.3465 39.6789C8.25271 38.6174 6.92727 36.5621 6.06502 34.47ZM44.7087 25.1567L51.696 25.1875L51.7151 49.2453C59.7876 49.2668 68.7452 49.3266 74.0839 50.7574L73.2652 56.8058C70.3164 56.1416 63.9383 55.4367 61.3391 55.2238C55.8304 54.7723 50.3022 54.5483 44.771 54.5163L44.7087 25.1567Z" fill="white"/>
</svg>
