<svg width="211" height="26" viewBox="0 0 211 26" fill="none" xmlns="http://www.w3.org/2000/svg">
<path d="M15.6217 0.275146V7.01598H13.0029C9.69475 7.01598 7.0293 9.67572 7.0293 12.9777C7.0293 16.2784 9.69475 18.9381 13.0017 18.9381H15.6217V25.679C21.5941 24.5327 26.0525 19.3053 26.0525 12.9764C26.0525 6.69487 21.5953 1.46749 15.6217 0.275146Z" fill="black"/>
<path d="M13.0041 21.0464C8.54691 21.0464 4.91555 17.4246 4.91555 12.9776C4.91555 8.53059 8.54568 4.90752 13.0016 4.90752H13.5079V0H13.0029C5.83599 0 0 5.82355 0 12.9764C0 20.1764 5.83599 26 13.0041 26H13.5092V21.0489H13.0041V21.0464ZM44.4329 17.5167C43.38 18.3794 42.0661 18.8487 40.7118 18.846C37.4491 18.846 34.8304 16.2323 34.8304 12.9764C34.8304 9.72169 37.4479 7.10799 40.7118 7.10799C42.1319 7.10183 43.5049 7.6235 44.5705 8.57415L46.6387 6.51182C45.0125 5.02904 42.9 4.21148 40.7118 4.218C35.8405 4.218 31.9351 8.16218 31.9351 12.9764C31.9351 17.7918 35.8405 21.7808 40.7118 21.7808C42.9631 21.7808 44.9847 20.9556 46.5011 19.5803L44.4329 17.5167ZM137.941 4.90627L131.463 12.7013L124.937 4.90627L124.892 4.99837V4.90627H122.272V21.0477H124.892V9.21637L131.463 17.0114L137.941 9.40057V21.0477H140.515V4.90627H137.941ZM66.1215 12.9764C66.1215 17.8378 62.1694 21.7347 57.3448 21.7347C52.4747 21.7347 48.5693 17.7918 48.5693 12.9764C48.5693 8.16218 52.5202 4.218 57.3448 4.218C62.1694 4.218 66.1215 8.16218 66.1215 12.9764ZM63.1808 12.9764C63.1808 9.72169 60.562 7.10799 57.2993 7.10799C54.0366 7.10799 51.4179 9.72169 51.4179 12.9764C51.4179 16.2323 54.0366 18.846 57.2993 18.846C60.562 18.846 63.1808 16.2323 63.1808 12.9764ZM119.608 12.9764C119.608 17.8378 115.656 21.7347 110.831 21.7347C105.96 21.7347 102.054 17.7918 102.054 12.9764C102.054 8.16218 106.006 4.218 110.831 4.218C115.701 4.218 119.608 8.16218 119.608 12.9764ZM116.712 12.9764C116.712 9.72169 114.094 7.10799 110.831 7.10799C107.568 7.10799 104.949 9.72169 104.949 12.9764C104.949 16.2323 107.568 18.846 110.831 18.846C114.047 18.846 116.712 16.2323 116.712 12.9764ZM102.009 4.90627H98.4695L91.8077 11.6932H89.0968V4.90627H86.5235V21.0477H89.0968V14.3068H91.761L98.4241 21.0477H101.917L94.0136 13.0224L102.009 4.90627ZM211 4.90627H207.51L200.8 11.6932H198.089V4.90627H195.516V21.0477H198.089V14.3068H200.8L207.417 21.0477H210.909L203.052 13.0224L211 4.90627ZM172.954 21.0464H175.805L168.681 4.90627H165.74L158.619 21.0477H161.467L163.029 17.5628H171.393L172.954 21.0464ZM164.179 14.9939L167.211 8.20823L170.244 14.9939H164.178H164.179ZM83.2154 16.3704C83.2154 15.7324 83.0847 15.1013 82.8315 14.5171C82.5783 13.9328 82.2081 13.4082 81.7444 12.9764C82.6169 12.1051 83.2154 10.9128 83.2154 9.58353C83.2114 8.34016 82.7204 7.1492 81.8502 6.27222C80.9799 5.39524 79.8015 4.90396 78.5738 4.90627H69.1089V21.0925H78.5738C81.1471 21.0477 83.2154 18.9381 83.2154 16.3704ZM71.7277 7.52121H78.5284C79.6774 7.52121 80.5954 8.43724 80.5954 9.58353C80.5954 10.7298 79.6774 11.6471 78.5284 11.6471H71.7277V7.51996V7.52121ZM78.5284 18.4788H71.7277V14.3068H78.5738C79.7228 14.3068 80.6421 15.2689 80.6421 16.3704C80.5954 17.5155 79.6774 18.4788 78.5284 18.4788ZM189.68 4.95232V11.6932H180.261V4.95232H177.642V21.0016H180.261V14.3056H189.68V21.0016H192.3V4.95232H189.68ZM157.699 16.3704C157.699 13.8015 155.586 11.6932 153.012 11.6932H146.212V7.51996H156.138V4.90627H143.593V21.0925H153.012C155.586 21.0477 157.699 18.9381 157.699 16.3704ZM153.012 18.4788H146.212V14.3068H153.012C154.161 14.3068 155.081 15.2689 155.081 16.3704C155.081 17.5155 154.161 18.4788 153.012 18.4788Z" fill="black"/>
</svg>
