<svg width="151" height="51" viewBox="0 0 151 51" fill="none" xmlns="http://www.w3.org/2000/svg">
<path d="M151 0H0V51H151V0Z" fill="black"/>
<path d="M139.421 23.4085H139.393V27.9946H140.283C140.283 27.9946 140.283 26.2022 140.283 26.1392C140.339 26.1392 140.668 26.1392 140.668 26.1392C140.668 26.1671 141.796 27.9946 141.796 27.9946L142.713 28.0225H142.769C142.769 28.0225 141.578 26.1392 141.522 26.0481C142.145 25.8661 142.503 25.411 142.503 24.8017C142.503 23.9545 141.908 23.4365 140.899 23.4365H139.414V23.4085H139.421ZM140.871 24.1086C141.376 24.1086 141.641 24.3537 141.641 24.7738C141.641 25.3199 141.228 25.439 140.871 25.439C140.871 25.439 140.304 25.439 140.248 25.439C140.248 25.376 140.248 24.1927 140.248 24.1367C140.311 24.1086 140.871 24.1086 140.871 24.1086ZM136.69 25.7471C136.69 28.1766 138.469 29.969 140.815 29.969C143.189 29.969 144.968 28.1486 144.968 25.7471C144.968 23.3174 143.189 21.525 140.843 21.525C138.469 21.525 136.69 23.3455 136.69 25.7471ZM137.461 25.7471C137.461 23.8006 138.917 22.3162 140.815 22.3162C142.741 22.3162 144.169 23.8006 144.169 25.7471C144.169 27.7215 142.748 29.2058 140.815 29.2058C138.917 29.2058 137.461 27.7215 137.461 25.7471ZM40.939 12.1428H62.3065V20.7689H57.6492V16.7639H50.0225V23.0164H56.1644V27.6304H50.0225V34.7651H57.6492V30.7252H62.3065V39.3792H40.7009V34.7651H43.6073V16.7569H40.939V12.1428ZM81.4188 30.6972H86.2302V39.3512H65.304V34.7372H68.8057V16.7569H65.304V12.1428H78.8065V16.7569H75.2138V34.7651H81.3908V30.6972H81.4188ZM28.62 12.1428H38.831V16.7569H36.4569L29.3904 39.3792H23.6335L16.3009 16.7569H13.3945V12.1428H25.5665V16.7569H22.7441L26.8411 30.5431H26.8971L31.3514 16.7569H28.648V12.1428H28.62ZM101.519 12.1428H110.812V16.7569H108.375V31.9995C108.375 38.343 102.408 39.6803 98.7313 39.6803C93.6258 39.6803 88.9055 37.6428 88.9055 30.9982V16.7569H85.9991V12.1428H97.4287V16.7569H95.2927V30.5712C95.2927 33.2458 96.5113 35.0662 99.3616 35.0662C101.764 35.0662 103.697 33.911 103.697 30.8162V16.7569H101.533V12.1428H101.519ZM134.82 34.7651H137.789V39.3792H125.379V35.0382H127.872L124.076 29.3879L120.393 35.0382H122.887V39.3792H112.346V34.7651H115.133L121.191 25.3829L115.231 16.7569H112.948V12.1428H124.496V16.4839H122.151L125.799 21.588L129.126 16.4839H126.871V12.1428H137.797V16.7569H134.35L128.531 25.656L134.82 34.7651Z" fill="white"/>
</svg>
