<svg width="115" height="48" viewBox="0 0 115 48" fill="none" xmlns="http://www.w3.org/2000/svg">
<path fill-rule="evenodd" clip-rule="evenodd" d="M0 0H115V48H0V0Z" fill="black"/>
<path d="M107.472 15.4335C108.176 15.4335 108.838 15.1595 109.336 14.6624C109.834 14.1652 110.108 13.5041 110.108 12.8012C110.108 12.0978 109.834 11.4367 109.336 10.9396C108.838 10.4422 108.176 10.1687 107.472 10.1687C106.018 10.1687 104.836 11.3496 104.836 12.8012C104.836 13.5041 105.11 14.1652 105.608 14.6624C106.106 15.1592 106.768 15.4335 107.472 15.4335ZM105.062 12.801C105.062 12.158 105.313 11.5537 105.768 11.0991C106.224 10.6445 106.828 10.394 107.472 10.394C108.116 10.394 108.721 10.6445 109.176 11.0991C109.631 11.5537 109.882 12.158 109.882 12.801C109.882 14.1277 108.801 15.2076 107.472 15.2076C106.828 15.2076 106.223 14.9571 105.768 14.5025C105.313 14.048 105.062 13.4436 105.062 12.801Z" fill="white"/>
<path d="M108.721 14.4681L107.767 12.8326C108.01 12.7929 108.209 12.7005 108.351 12.5586C108.503 12.406 108.584 12.1992 108.584 11.9599C108.584 11.7197 108.504 11.5123 108.351 11.3597C108.175 11.184 107.915 11.0913 107.598 11.0913H106.621V14.453H106.965V11.4342H107.598C107.822 11.4342 107.998 11.4921 108.108 11.6021C108.196 11.69 108.241 11.8107 108.241 11.9599C108.241 12.4405 107.765 12.5121 107.482 12.5121H107.183L107.333 12.7702L108.324 14.4681H108.721Z" fill="white"/>
<path d="M16.448 38.2234C16.448 38.2234 16.7504 36.2862 16.7504 34.0785L16.7524 26.2114L7.07798 12.4113C5.96581 10.757 4.89062 9.93212 4.89062 9.93212L4.89539 9.78125H13.6967C14.877 9.78125 15.7063 10.4049 16.1582 11.1072L21.3188 19.046L26.4822 11.1324C26.947 10.3923 27.776 9.78125 28.9689 9.78125H37.7604L37.7593 9.93212C37.7593 9.93212 36.7682 10.7562 35.5719 12.4113L25.8973 26.2114L25.899 34.0785C25.899 36.2612 26.2014 38.2234 26.2014 38.2234H16.448Z" fill="white"/>
<path d="M65.8019 33.7297L58.1532 23.2445L64.9353 14.5399C64.9353 14.5399 66.749 12.2035 69.4944 9.9242L69.4953 9.77753H60.9916C59.3492 9.77753 57.8645 10.5641 56.9224 11.7806L48.5144 22.9193V13.9185C48.5144 11.7361 48.8171 9.77417 48.8171 9.77417H39.1719C39.1719 9.77417 39.4743 11.7114 39.4743 13.9185V34.081C39.4743 36.2883 39.1719 38.2256 39.1719 38.2256H48.8171C48.8171 38.2256 48.5144 36.2631 48.5144 34.081V23.8584L57.0858 36.0876C57.9774 37.3296 59.4618 38.2256 61.2579 38.2256H69.7055V38.0831C68.7783 37.179 67.7236 36.2505 65.8019 33.7297Z" fill="white"/>
<path d="M98.1069 33.7297L90.4581 23.2445L97.2402 14.5399C97.2402 14.5399 99.054 12.2035 101.799 9.9242L101.801 9.77753H93.2969C91.6541 9.77753 90.1692 10.5641 89.2277 11.7806L80.8196 22.9193V13.9185C80.8196 11.7361 81.1221 9.77417 81.1221 9.77417H71.4766C71.4766 9.77417 71.7793 11.7114 71.7793 13.9185V34.081C71.7793 36.2883 71.4766 38.2256 71.4766 38.2256H81.1221C81.1221 38.2256 80.8196 36.2631 80.8196 34.081V23.8584L89.3911 36.0876C90.2827 37.3296 91.7671 38.2256 93.5632 38.2256H102.01L102.011 38.0831C101.083 37.179 100.028 36.2505 98.1069 33.7297Z" fill="white"/>
</svg>
