<svg width="327" height="424" viewBox="0 0 327 424" fill="none" xmlns="http://www.w3.org/2000/svg">
<path d="M263.44 402.165L253.559 381.148H261.51L269.671 397.975H309.847L318.711 381.249H326.559L316.625 402.098L326.559 423.148H318.529L309.821 406.388H269.723L261.432 423.148H253.559L263.44 402.165Z" fill="white"/>
<path d="M238.605 423.081V381H246.35V423.081H238.605Z" fill="white"/>
<path d="M223.236 423.114L165.68 390.771V423.215H158.087L157.996 381.034H165.62L223.297 413.243L223.266 381.135H230.92V423.114H223.236Z" fill="white"/>
<path d="M144.358 411.491V393.062C144.358 390.703 143.346 389.524 141.321 389.524H89.7488C87.724 389.524 86.7116 390.625 86.7116 392.826V411.39C86.7116 413.681 87.724 414.826 89.7488 414.826H141.382C143.366 414.826 144.358 413.714 144.358 411.491ZM88.1391 423.215C82.0646 423.215 79.0273 419.835 79.0273 413.074V391.242C79.0273 384.504 82.0342 381.135 88.048 381.135H142.688C148.864 381.135 151.952 384.583 151.952 391.478V413.276C151.952 419.835 148.965 423.114 142.992 423.114L88.1391 423.215Z" fill="white"/>
<path d="M73.0154 423.215H63.7518L54.5793 409.705H7.68423V423.215H0L0.0911174 381.101H63.9036C69.9174 381.101 72.9243 384.414 72.9243 391.04V399.665C72.9243 406.358 69.8566 409.705 63.7214 409.705L73.0154 423.215ZM62.0813 389.49H7.68423V401.35H62.3243C64.3289 401.35 65.3413 400.159 65.3615 397.778L65.4223 392.893C65.4425 390.625 64.3289 389.49 62.0813 389.49Z" fill="white"/>
<path d="M320 140.193L168.729 336L165.865 335.754L162.591 335.631L159.317 335.754L156.453 336L6 140.193L70.8478 187.697L154.406 322.215L77.6739 76.469L122.043 149.462L158.908 309.415L149.348 149.462L163 0L176.652 149.462L167.092 309.538L203.957 149.462L248.326 76.469L171.184 322.338L255.152 187.697L320 140.193Z" fill="white"/>
</svg>
