<svg width="180" height="170" viewBox="0 0 180 170" fill="none" xmlns="http://www.w3.org/2000/svg">
<path d="M55.45 134.592V155.391H7.38281V82.1245C23.6576 72.0406 62.1113 66.8094 85.7287 126.557H95.9477C104.274 102.292 131.449 59.4356 173.537 82.1245V155.391H127.362V134.592" stroke="#737373" stroke-width="3"/>
<path d="M32.6043 61.4732C44.8941 61.4732 54.857 51.2797 54.857 38.7054C54.857 26.131 44.8941 15.9375 32.6043 15.9375C20.3145 15.9375 10.3516 26.131 10.3516 38.7054C10.3516 51.2797 20.3145 61.4732 32.6043 61.4732Z" fill="#418BEB"/>
<path d="M148.319 61.4732C160.609 61.4732 170.572 51.2797 170.572 38.7054C170.572 26.131 160.609 15.9375 148.319 15.9375C136.029 15.9375 126.066 26.131 126.066 38.7054C126.066 51.2797 136.029 61.4732 148.319 61.4732Z" fill="#418BEB"/>
</svg>
