<svg width="180" height="180" viewBox="0 0 180 180" fill="none" xmlns="http://www.w3.org/2000/svg">
<mask id="mask0_1945_27" style="mask-type:luminance" maskUnits="userSpaceOnUse" x="0" y="0" width="179" height="180">
<path d="M178.157 0H0.925781V180H178.157V0Z" fill="white"/>
</mask>
<g mask="url(#mask0_1945_27)">
<path d="M34.155 64.1387C23.3264 87.1413 27.293 115.533 46.055 134.588C56.997 145.701 71.0661 151.703 85.3858 152.594M88.155 28.9684C104.071 28.7102 120.068 34.7484 132.213 47.0831C151.912 67.0901 155.301 97.3895 142.379 120.937" stroke="#737373" stroke-width="3"/>
<path d="M59.885 60.1901C68.984 60.1239 76.3073 52.5788 76.2421 43.3377C76.1769 34.0966 68.7479 26.6588 59.6489 26.7251C50.55 26.7913 43.2267 34.3364 43.2919 43.5775C43.3571 52.8186 50.7861 60.2563 59.885 60.1901Z" fill="#418BEB"/>
<path d="M118.125 155.813C127.224 155.746 134.548 148.201 134.482 138.96C134.417 129.719 126.988 122.281 117.889 122.348C108.79 122.414 101.467 129.959 101.532 139.2C101.597 148.441 109.026 155.879 118.125 155.813Z" fill="#418BEB"/>
</g>
</svg>
